<svg width="8" height="24" viewBox="0 0 8 24" fill="none" xmlns="http://www.w3.org/2000/svg">
<path d="M3.79719 8.61337C5.65759 8.61337 7.16274 10.1185 7.16274 11.9789C7.16274 13.8393 5.65759 15.3445 3.79719 15.3445C1.93679 15.3445 0.431641 13.8393 0.431641 11.9789C0.431641 10.1185 1.93679 8.61337 3.79719 8.61337ZM0.431641 3.75202C0.431641 5.61243 1.93679 7.11757 3.79719 7.11757C5.65759 7.11757 7.16274 5.61243 7.16274 3.75202C7.16274 1.89162 5.65759 0.386475 3.79719 0.386475C1.93679 0.386475 0.431641 1.89162 0.431641 3.75202ZM0.431641 20.2058C0.431641 22.0662 1.93679 23.5714 3.79719 23.5714C5.65759 23.5714 7.16274 22.0662 7.16274 20.2058C7.16274 18.3454 5.65759 16.8403 3.79719 16.8403C1.93679 16.8403 0.431641 18.3454 0.431641 20.2058Z" fill="#9E37E2"/>
</svg>
