<?xml version="1.0" standalone="no"?><svg xmlns:xlink="http://www.w3.org/1999/xlink" xmlns="http://www.w3.org/2000/svg" viewBox="0 0 1000 705.8973247485613" preserveAspectRatio="xMaxYMax slice"><g transform="scale(1.9884431683058066)"><rect x="0" y="0" width="502.91666666666663" height="355" fill="#333333"/><g transform="translate(414.17,59.17) scale(1.4789999999999999) rotate(0)"><path d="M10 0L20 10L10 20L0 10L10 0Z" fill="#b30cc9"/></g><g transform="translate(473.33,59.17) scale(1.4789999999999999) rotate(0)"><path fill-rule="evenodd" clip-rule="evenodd" d="M10 20C15.5228 20 20 15.5228 20 10C20 4.47715 15.5228 0 10 0C4.47715 0 0 4.47715 0 10C0 15.5228 4.47715 20 10 20ZM10 17C13.866 17 17 13.866 17 10C17 6.13401 13.866 3 10 3C6.13401 3 3 6.13401 3 10C3 13.866 6.13401 17 10 17Z" fill="#71345f"/></g><polygon points="0,88.75 29.58,118.33 0,118.33" fill="#ab0fbf"/><path d="M 29.58 88.75 A 29.58 29.58 0 0 1  59.16 118.33 L 29.58 88.75 A 29.58 29.58 0 0 0 59.16 118.33" fill="#f235bc"/><g transform="translate(88.75,88.75) scale(1.4789999999999999) rotate(0)"><path d="M10 0L20 10L10 20L0 10L10 0Z" fill="#308695"/></g><polygon points="118.33,88.75 147.91,118.33 118.33,118.33" fill="#ab0fc0"/><path d="M 236.67 88.75 A 29.58 29.58 0 0 1  266.25 118.33 L 236.67 88.75 A 29.58 29.58 0 0 0 266.25 118.33" fill="#e735b4"/><path d="M 266.25 88.75 A 29.58 29.58 0 0 1  295.83 118.33 L 266.25 88.75 A 29.58 29.58 0 0 0 295.83 118.33" fill="#316068"/><polygon points="325.42,88.75 355,88.75 325.42,118.33" fill="#c13499"/><polygon points="384.58,88.75 384.58,118.33 355,118.33" fill="#791e85"/><g transform="translate(414.17,88.75) scale(1.4789999999999999) rotate(0)"><path fill-rule="evenodd" clip-rule="evenodd" d="M10 20C15.5228 20 20 15.5228 20 10C20 4.47715 15.5228 0 10 0C4.47715 0 0 4.47715 0 10C0 15.5228 4.47715 20 10 20ZM10 17C13.866 17 17 13.866 17 10C17 6.13401 13.866 3 10 3C6.13401 3 3 6.13401 3 10C3 13.866 6.13401 17 10 17Z" fill="#324d51"/></g><path d="M 473.33 88.75 A 29.58 29.58 0 0 1  502.90999999999997 118.33 L 473.33 88.75 A 29.58 29.58 0 0 0 502.90999999999997 118.33" fill="#3a3338"/><g transform="translate(29.58,118.33) scale(1.4789999999999999) rotate(0)"><path fill-rule="evenodd" clip-rule="evenodd" d="M10 20C15.5228 20 20 15.5228 20 10C20 4.47715 15.5228 0 10 0C4.47715 0 0 4.47715 0 10C0 15.5228 4.47715 20 10 20ZM10 17C13.866 17 17 13.866 17 10C17 6.13401 13.866 3 10 3C6.13401 3 3 6.13401 3 10C3 13.866 6.13401 17 10 17Z" fill="#c2349a"/></g><polygon points="118.33,118.33 118.33,147.91 88.75,147.91" fill="#6b2275"/><g transform="translate(118.33,118.33) scale(1.4789999999999999) rotate(0)"><path d="M10 0L20 10L10 20L0 10L10 0Z" fill="#a23483"/></g><path d="M 147.92 147.91 A 29.58 29.58 0 0 1  177.5 118.33 L 147.92 147.91 A 29.58 29.58 0 0 0 177.5 118.33" fill="#7d3468"/><g transform="translate(177.5,118.33) scale(1.4789999999999999) rotate(0)"><path d="M10 0L20 10L10 20L0 10L10 0Z" fill="#9316a4"/></g><g transform="translate(236.67,118.33) scale(1.4789999999999999) rotate(0)"><path fill-rule="evenodd" clip-rule="evenodd" d="M10 20C15.5228 20 20 15.5228 20 10C20 4.47715 15.5228 0 10 0C4.47715 0 0 4.47715 0 10C0 15.5228 4.47715 20 10 20ZM10 17C13.866 17 17 13.866 17 10C17 6.13401 13.866 3 10 3C6.13401 3 3 6.13401 3 10C3 13.866 6.13401 17 10 17Z" fill="#3d333a"/></g><g transform="translate(325.42,118.33) scale(1.4789999999999999) rotate(0)"><path fill-rule="evenodd" clip-rule="evenodd" d="M10 20C15.5228 20 20 15.5228 20 10C20 4.47715 15.5228 0 10 0C4.47715 0 0 4.47715 0 10C0 15.5228 4.47715 20 10 20ZM10 17C13.866 17 17 13.866 17 10C17 6.13401 13.866 3 10 3C6.13401 3 3 6.13401 3 10C3 13.866 6.13401 17 10 17Z" fill="#333334"/></g><g transform="translate(355,118.33) scale(1.4789999999999999) rotate(0)"><path d="M10 0L20 10L10 20L0 10L10 0Z" fill="#8d189c"/></g><g transform="translate(473.33,118.33) scale(1.4789999999999999) rotate(0)"><path fill-rule="evenodd" clip-rule="evenodd" d="M10 20C15.5228 20 20 15.5228 20 10C20 4.47715 15.5228 0 10 0C4.47715 0 0 4.47715 0 10C0 15.5228 4.47715 20 10 20ZM10 17C13.866 17 17 13.866 17 10C17 6.13401 13.866 3 10 3C6.13401 3 3 6.13401 3 10C3 13.866 6.13401 17 10 17Z" fill="#643356"/></g><polygon points="29.58,147.92 59.16,147.92 29.58,177.5" fill="#308f9f"/><polygon points="88.75,147.92 118.33,147.92 118.33,177.5" fill="#6f217a"/><g transform="translate(118.33,147.92) scale(1.4789999999999999) rotate(0)"><path fill-rule="evenodd" clip-rule="evenodd" d="M10 20C15.5228 20 20 15.5228 20 10C20 4.47715 15.5228 0 10 0C4.47715 0 0 4.47715 0 10C0 15.5228 4.47715 20 10 20ZM10 17C13.866 17 17 13.866 17 10C17 6.13401 13.866 3 10 3C6.13401 3 3 6.13401 3 10C3 13.866 6.13401 17 10 17Z" fill="#ae0ec3"/></g><g transform="translate(177.5,147.92) scale(1.4789999999999999) rotate(0)"><path d="M10 0L20 10L10 20L0 10L10 0Z" fill="#4a3344"/></g><path d="M 207.08 147.92 A 29.58 29.58 0 0 1  236.66000000000003 177.5 L 207.08 147.92 A 29.58 29.58 0 0 0 236.66000000000003 177.5" fill="#2fa8be"/><g transform="translate(236.67,147.92) scale(1.4789999999999999) rotate(0)"><path d="M10 0L20 10L10 20L0 10L10 0Z" fill="#502a55"/></g><g transform="translate(295.83,147.92) scale(1.4789999999999999) rotate(0)"><path d="M10 0L20 10L10 20L0 10L10 0Z" fill="#4c3345"/></g><g transform="translate(325.42,147.92) scale(1.4789999999999999) rotate(0)"><path fill-rule="evenodd" clip-rule="evenodd" d="M10 20C15.5228 20 20 15.5228 20 10C20 4.47715 15.5228 0 10 0C4.47715 0 0 4.47715 0 10C0 15.5228 4.47715 20 10 20ZM10 17C13.866 17 17 13.866 17 10C17 6.13401 13.866 3 10 3C6.13401 3 3 6.13401 3 10C3 13.866 6.13401 17 10 17Z" fill="#3a313b"/></g><g transform="translate(355,147.92) scale(1.4789999999999999) rotate(0)"><path d="M10 0L20 10L10 20L0 10L10 0Z" fill="#851a93"/></g><g transform="translate(443.75,147.92) scale(1.4789999999999999) rotate(0)"><path d="M10 0L20 10L10 20L0 10L10 0Z" fill="#692372"/></g><g transform="translate(0,177.5) scale(1.4789999999999999) rotate(0)"><path fill-rule="evenodd" clip-rule="evenodd" d="M10 20C15.5228 20 20 15.5228 20 10C20 4.47715 15.5228 0 10 0C4.47715 0 0 4.47715 0 10C0 15.5228 4.47715 20 10 20ZM10 17C13.866 17 17 13.866 17 10C17 6.13401 13.866 3 10 3C6.13401 3 3 6.13401 3 10C3 13.866 6.13401 17 10 17Z" fill="#9117a1"/></g><polygon points="29.58,177.5 59.16,177.5 59.16,207.07999999999998" fill="#383238"/><polygon points="59.17,177.5 88.75,177.5 59.17,207.07999999999998" fill="#5d2664"/><g transform="translate(88.75,177.5) scale(1.4789999999999999) rotate(0)"><path fill-rule="evenodd" clip-rule="evenodd" d="M10 20C15.5228 20 20 15.5228 20 10C20 4.47715 15.5228 0 10 0C4.47715 0 0 4.47715 0 10C0 15.5228 4.47715 20 10 20ZM10 17C13.866 17 17 13.866 17 10C17 6.13401 13.866 3 10 3C6.13401 3 3 6.13401 3 10C3 13.866 6.13401 17 10 17Z" fill="#743462"/></g><g transform="translate(118.33,177.5) scale(1.4789999999999999) rotate(0)"><path fill-rule="evenodd" clip-rule="evenodd" d="M10 20C15.5228 20 20 15.5228 20 10C20 4.47715 15.5228 0 10 0C4.47715 0 0 4.47715 0 10C0 15.5228 4.47715 20 10 20ZM10 17C13.866 17 17 13.866 17 10C17 6.13401 13.866 3 10 3C6.13401 3 3 6.13401 3 10C3 13.866 6.13401 17 10 17Z" fill="#2fa7bc"/></g><g transform="translate(147.92,177.5) scale(1.4789999999999999) rotate(0)"><path fill-rule="evenodd" clip-rule="evenodd" d="M10 20C15.5228 20 20 15.5228 20 10C20 4.47715 15.5228 0 10 0C4.47715 0 0 4.47715 0 10C0 15.5228 4.47715 20 10 20ZM10 17C13.866 17 17 13.866 17 10C17 6.13401 13.866 3 10 3C6.13401 3 3 6.13401 3 10C3 13.866 6.13401 17 10 17Z" fill="#69345a"/></g><path d="M 207.08 207.07999999999998 A 29.58 29.58 0 0 1  236.66000000000003 177.5 L 207.08 207.07999999999998 A 29.58 29.58 0 0 0 236.66000000000003 177.5" fill="#a43484"/><polygon points="266.25,177.5 295.83,177.5 266.25,207.07999999999998" fill="#2f94a6"/><path d="M 295.83 207.07999999999998 A 29.58 29.58 0 0 1  325.40999999999997 177.5 L 295.83 207.07999999999998 A 29.58 29.58 0 0 0 325.40999999999997 177.5" fill="#8d189d"/><g transform="translate(325.42,177.5) scale(1.4789999999999999) rotate(0)"><path fill-rule="evenodd" clip-rule="evenodd" d="M10 20C15.5228 20 20 15.5228 20 10C20 4.47715 15.5228 0 10 0C4.47715 0 0 4.47715 0 10C0 15.5228 4.47715 20 10 20ZM10 17C13.866 17 17 13.866 17 10C17 6.13401 13.866 3 10 3C6.13401 3 3 6.13401 3 10C3 13.866 6.13401 17 10 17Z" fill="#5c3351"/></g><g transform="translate(384.58,177.5) scale(1.4789999999999999) rotate(0)"><path d="M10 0L20 10L10 20L0 10L10 0Z" fill="#333d3e"/></g><polygon points="414.17,177.5 443.75,177.5 443.75,207.07999999999998" fill="#e235b1"/><polygon points="443.75,177.5 473.33,177.5 443.75,207.07999999999998" fill="#72207d"/><path d="M 0 236.66000000000003 A 29.58 29.58 0 0 1  29.58 207.08 L 0 236.66000000000003 A 29.58 29.58 0 0 0 29.58 207.08" fill="#881997"/><g transform="translate(29.58,207.08) scale(1.4789999999999999) rotate(0)"><path d="M10 0L20 10L10 20L0 10L10 0Z" fill="#dd35ad"/></g><g transform="translate(118.33,207.08) scale(1.4789999999999999) rotate(0)"><path d="M10 0L20 10L10 20L0 10L10 0Z" fill="#733461"/></g><g transform="translate(177.5,207.08) scale(1.4789999999999999) rotate(0)"><path d="M10 0L20 10L10 20L0 10L10 0Z" fill="#57285e"/></g><path d="M 236.67 207.08 A 29.58 29.58 0 0 1  266.25 236.66000000000003 L 236.67 207.08 A 29.58 29.58 0 0 0 266.25 236.66000000000003" fill="#31626a"/><g transform="translate(266.25,207.08) scale(1.4789999999999999) rotate(0)"><path fill-rule="evenodd" clip-rule="evenodd" d="M10 20C15.5228 20 20 15.5228 20 10C20 4.47715 15.5228 0 10 0C4.47715 0 0 4.47715 0 10C0 15.5228 4.47715 20 10 20ZM10 17C13.866 17 17 13.866 17 10C17 6.13401 13.866 3 10 3C6.13401 3 3 6.13401 3 10C3 13.866 6.13401 17 10 17Z" fill="#5c2763"/></g><polygon points="295.83,207.08 325.40999999999997,207.08 295.83,236.66000000000003" fill="#315e66"/><polygon points="325.42,207.08 355,207.08 325.42,236.66000000000003" fill="#5e2666"/><path d="M 355 207.08 A 29.58 29.58 0 0 1  384.58 236.66000000000003 L 355 207.08 A 29.58 29.58 0 0 0 384.58 236.66000000000003" fill="#791e85"/><g transform="translate(443.75,207.08) scale(1.4789999999999999) rotate(0)"><path d="M10 0L20 10L10 20L0 10L10 0Z" fill="#4f3347"/></g><polygon points="473.33,207.08 502.90999999999997,207.08 502.90999999999997,236.66000000000003" fill="#e135b0"/><g transform="translate(29.58,236.67) scale(1.4789999999999999) rotate(0)"><path d="M10 0L20 10L10 20L0 10L10 0Z" fill="#2fa9be"/></g><polygon points="88.75,236.67 118.33,266.25 88.75,266.25" fill="#5a2761"/><g transform="translate(118.33,236.67) scale(1.4789999999999999) rotate(0)"><path d="M10 0L20 10L10 20L0 10L10 0Z" fill="#2f9fb3"/></g><g transform="translate(177.5,236.67) scale(1.4789999999999999) rotate(0)"><path fill-rule="evenodd" clip-rule="evenodd" d="M10 20C15.5228 20 20 15.5228 20 10C20 4.47715 15.5228 0 10 0C4.47715 0 0 4.47715 0 10C0 15.5228 4.47715 20 10 20ZM10 17C13.866 17 17 13.866 17 10C17 6.13401 13.866 3 10 3C6.13401 3 3 6.13401 3 10C3 13.866 6.13401 17 10 17Z" fill="#ed35b9"/></g><polygon points="207.08,236.67 236.66000000000003,236.67 236.66000000000003,266.25" fill="#57334d"/><path d="M 236.67 236.67 A 29.58 29.58 0 0 1  266.25 266.25 L 236.67 236.67 A 29.58 29.58 0 0 0 266.25 266.25" fill="#e835b5"/><polygon points="295.83,236.67 325.40999999999997,266.25 295.83,266.25" fill="#a53485"/><g transform="translate(325.42,236.67) scale(1.4789999999999999) rotate(0)"><path fill-rule="evenodd" clip-rule="evenodd" d="M10 20C15.5228 20 20 15.5228 20 10C20 4.47715 15.5228 0 10 0C4.47715 0 0 4.47715 0 10C0 15.5228 4.47715 20 10 20ZM10 17C13.866 17 17 13.866 17 10C17 6.13401 13.866 3 10 3C6.13401 3 3 6.13401 3 10C3 13.866 6.13401 17 10 17Z" fill="#b43490"/></g><g transform="translate(355,236.67) scale(1.4789999999999999) rotate(0)"><path fill-rule="evenodd" clip-rule="evenodd" d="M10 20C15.5228 20 20 15.5228 20 10C20 4.47715 15.5228 0 10 0C4.47715 0 0 4.47715 0 10C0 15.5228 4.47715 20 10 20ZM10 17C13.866 17 17 13.866 17 10C17 6.13401 13.866 3 10 3C6.13401 3 3 6.13401 3 10C3 13.866 6.13401 17 10 17Z" fill="#6d345c"/></g><path d="M 443.75 266.25 A 29.58 29.58 0 0 1  473.33 236.67 L 443.75 266.25 A 29.58 29.58 0 0 0 473.33 236.67" fill="#316b75"/><path d="M 473.33 266.25 A 29.58 29.58 0 0 1  502.90999999999997 236.67 L 473.33 266.25 A 29.58 29.58 0 0 0 502.90999999999997 236.67" fill="#f935c1"/><g transform="translate(59.17,266.25) scale(1.4789999999999999) rotate(0)"><path fill-rule="evenodd" clip-rule="evenodd" d="M10 20C15.5228 20 20 15.5228 20 10C20 4.47715 15.5228 0 10 0C4.47715 0 0 4.47715 0 10C0 15.5228 4.47715 20 10 20ZM10 17C13.866 17 17 13.866 17 10C17 6.13401 13.866 3 10 3C6.13401 3 3 6.13401 3 10C3 13.866 6.13401 17 10 17Z" fill="#66246f"/></g><g transform="translate(88.75,266.25) scale(1.4789999999999999) rotate(0)"><path fill-rule="evenodd" clip-rule="evenodd" d="M10 20C15.5228 20 20 15.5228 20 10C20 4.47715 15.5228 0 10 0C4.47715 0 0 4.47715 0 10C0 15.5228 4.47715 20 10 20ZM10 17C13.866 17 17 13.866 17 10C17 6.13401 13.866 3 10 3C6.13401 3 3 6.13401 3 10C3 13.866 6.13401 17 10 17Z" fill="#a710bb"/></g><g transform="translate(147.92,266.25) scale(1.4789999999999999) rotate(0)"><path fill-rule="evenodd" clip-rule="evenodd" d="M10 20C15.5228 20 20 15.5228 20 10C20 4.47715 15.5228 0 10 0C4.47715 0 0 4.47715 0 10C0 15.5228 4.47715 20 10 20ZM10 17C13.866 17 17 13.866 17 10C17 6.13401 13.866 3 10 3C6.13401 3 3 6.13401 3 10C3 13.866 6.13401 17 10 17Z" fill="#2eb6cd"/></g><g transform="translate(207.08,266.25) scale(1.4789999999999999) rotate(0)"><path d="M10 0L20 10L10 20L0 10L10 0Z" fill="#324a4e"/></g><path d="M 236.67 266.25 A 29.58 29.58 0 0 1  266.25 295.83 L 236.67 266.25 A 29.58 29.58 0 0 0 266.25 295.83" fill="#603353"/><path d="M 266.25 266.25 A 29.58 29.58 0 0 1  295.83 295.83 L 266.25 266.25 A 29.58 29.58 0 0 0 295.83 295.83" fill="#5c3351"/><g transform="translate(325.42,266.25) scale(1.4789999999999999) rotate(0)"><path d="M10 0L20 10L10 20L0 10L10 0Z" fill="#a211b5"/></g><g transform="translate(355,266.25) scale(1.4789999999999999) rotate(0)"><path fill-rule="evenodd" clip-rule="evenodd" d="M10 20C15.5228 20 20 15.5228 20 10C20 4.47715 15.5228 0 10 0C4.47715 0 0 4.47715 0 10C0 15.5228 4.47715 20 10 20ZM10 17C13.866 17 17 13.866 17 10C17 6.13401 13.866 3 10 3C6.13401 3 3 6.13401 3 10C3 13.866 6.13401 17 10 17Z" fill="#453340"/></g><polygon points="384.58,266.25 414.15999999999997,266.25 384.58,295.83" fill="#316d77"/><path d="M 443.75 266.25 A 29.58 29.58 0 0 1  473.33 295.83 L 443.75 266.25 A 29.58 29.58 0 0 0 473.33 295.83" fill="#333333"/><g transform="translate(473.33,266.25) scale(1.4789999999999999) rotate(0)"><path fill-rule="evenodd" clip-rule="evenodd" d="M10 20C15.5228 20 20 15.5228 20 10C20 4.47715 15.5228 0 10 0C4.47715 0 0 4.47715 0 10C0 15.5228 4.47715 20 10 20ZM10 17C13.866 17 17 13.866 17 10C17 6.13401 13.866 3 10 3C6.13401 3 3 6.13401 3 10C3 13.866 6.13401 17 10 17Z" fill="#9e13b0"/></g><polygon points="0,295.83 29.58,295.83 0,325.40999999999997" fill="#781e83"/><g transform="translate(29.58,295.83) scale(1.4789999999999999) rotate(0)"><path fill-rule="evenodd" clip-rule="evenodd" d="M10 20C15.5228 20 20 15.5228 20 10C20 4.47715 15.5228 0 10 0C4.47715 0 0 4.47715 0 10C0 15.5228 4.47715 20 10 20ZM10 17C13.866 17 17 13.866 17 10C17 6.13401 13.866 3 10 3C6.13401 3 3 6.13401 3 10C3 13.866 6.13401 17 10 17Z" fill="#333839"/></g><g transform="translate(59.17,295.83) scale(1.4789999999999999) rotate(0)"><path fill-rule="evenodd" clip-rule="evenodd" d="M10 20C15.5228 20 20 15.5228 20 10C20 4.47715 15.5228 0 10 0C4.47715 0 0 4.47715 0 10C0 15.5228 4.47715 20 10 20ZM10 17C13.866 17 17 13.866 17 10C17 6.13401 13.866 3 10 3C6.13401 3 3 6.13401 3 10C3 13.866 6.13401 17 10 17Z" fill="#b53490"/></g><polygon points="88.75,295.83 118.33,295.83 118.33,325.40999999999997" fill="#741f7f"/><g transform="translate(118.33,295.83) scale(1.4789999999999999) rotate(0)"><path fill-rule="evenodd" clip-rule="evenodd" d="M10 20C15.5228 20 20 15.5228 20 10C20 4.47715 15.5228 0 10 0C4.47715 0 0 4.47715 0 10C0 15.5228 4.47715 20 10 20ZM10 17C13.866 17 17 13.866 17 10C17 6.13401 13.866 3 10 3C6.13401 3 3 6.13401 3 10C3 13.866 6.13401 17 10 17Z" fill="#308e9e"/></g><g transform="translate(147.92,295.83) scale(1.4789999999999999) rotate(0)"><path d="M10 0L20 10L10 20L0 10L10 0Z" fill="#2dcde9"/></g><g transform="translate(177.5,295.83) scale(1.4789999999999999) rotate(0)"><path d="M10 0L20 10L10 20L0 10L10 0Z" fill="#2f9eb2"/></g><path d="M 207.08 325.40999999999997 A 29.58 29.58 0 0 1  236.66000000000003 295.83 L 207.08 325.40999999999997 A 29.58 29.58 0 0 0 236.66000000000003 295.83" fill="#2f94a5"/><polygon points="266.25,295.83 266.25,325.40999999999997 236.67,325.40999999999997" fill="#8f179f"/><g transform="translate(266.25,295.83) scale(1.4789999999999999) rotate(0)"><path d="M10 0L20 10L10 20L0 10L10 0Z" fill="#32484c"/></g><polygon points="295.83,295.83 325.40999999999997,325.40999999999997 295.83,325.40999999999997" fill="#324549"/><path d="M 325.42 295.83 A 29.58 29.58 0 0 1  355 325.40999999999997 L 325.42 295.83 A 29.58 29.58 0 0 0 355 325.40999999999997" fill="#2fa8bd"/><g transform="translate(355,295.83) scale(1.4789999999999999) rotate(0)"><path d="M10 0L20 10L10 20L0 10L10 0Z" fill="#d335a6"/></g><path d="M 384.58 295.83 A 29.58 29.58 0 0 1  414.15999999999997 325.40999999999997 L 384.58 295.83 A 29.58 29.58 0 0 0 414.15999999999997 325.40999999999997" fill="#422e44"/><g transform="translate(414.17,295.83) scale(1.4789999999999999) rotate(0)"><path fill-rule="evenodd" clip-rule="evenodd" d="M10 20C15.5228 20 20 15.5228 20 10C20 4.47715 15.5228 0 10 0C4.47715 0 0 4.47715 0 10C0 15.5228 4.47715 20 10 20ZM10 17C13.866 17 17 13.866 17 10C17 6.13401 13.866 3 10 3C6.13401 3 3 6.13401 3 10C3 13.866 6.13401 17 10 17Z" fill="#73207e"/></g><path d="M 443.75 295.83 A 29.58 29.58 0 0 1  473.33 325.40999999999997 L 443.75 295.83 A 29.58 29.58 0 0 0 473.33 325.40999999999997" fill="#463340"/><path d="M 473.33 295.83 A 29.58 29.58 0 0 1  502.90999999999997 325.40999999999997 L 473.33 295.83 A 29.58 29.58 0 0 0 502.90999999999997 325.40999999999997" fill="#c03498"/><g transform="translate(0,325.42) scale(1.4789999999999999) rotate(0)"><path d="M10 0L20 10L10 20L0 10L10 0Z" fill="#2fa6bb"/></g><path d="M 29.58 325.42 A 29.58 29.58 0 0 1  59.16 355 L 29.58 325.42 A 29.58 29.58 0 0 0 59.16 355" fill="#472d4a"/><polygon points="59.17,325.42 88.75,325.42 59.17,355" fill="#452e48"/><path d="M 88.75 355 A 29.58 29.58 0 0 1  118.33 325.42 L 88.75 355 A 29.58 29.58 0 0 0 118.33 325.42" fill="#da35ab"/><path d="M 118.33 325.42 A 29.58 29.58 0 0 1  147.91 355 L 118.33 325.42 A 29.58 29.58 0 0 0 147.91 355" fill="#ea35b6"/><g transform="translate(147.92,325.42) scale(1.4789999999999999) rotate(0)"><path fill-rule="evenodd" clip-rule="evenodd" d="M10 20C15.5228 20 20 15.5228 20 10C20 4.47715 15.5228 0 10 0C4.47715 0 0 4.47715 0 10C0 15.5228 4.47715 20 10 20ZM10 17C13.866 17 17 13.866 17 10C17 6.13401 13.866 3 10 3C6.13401 3 3 6.13401 3 10C3 13.866 6.13401 17 10 17Z" fill="#9f12b2"/></g><path d="M 177.5 355 A 29.58 29.58 0 0 1  207.07999999999998 325.42 L 177.5 355 A 29.58 29.58 0 0 0 207.07999999999998 325.42" fill="#308392"/><polygon points="207.08,325.42 236.66000000000003,325.42 236.66000000000003,355" fill="#6f2179"/><path d="M 236.67 325.42 A 29.58 29.58 0 0 1  266.25 355 L 236.67 325.42 A 29.58 29.58 0 0 0 266.25 355" fill="#86346f"/><path d="M 266.25 355 A 29.58 29.58 0 0 1  295.83 325.42 L 266.25 355 A 29.58 29.58 0 0 0 295.83 325.42" fill="#2dd0ed"/><polygon points="325.40999999999997,325.42 325.40999999999997,355 295.83,355" fill="#3e333b"/><path d="M 325.42 325.42 A 29.58 29.58 0 0 1  355 355 L 325.42 325.42 A 29.58 29.58 0 0 0 355 355" fill="#31656e"/><g transform="translate(355,325.42) scale(1.4789999999999999) rotate(0)"><path fill-rule="evenodd" clip-rule="evenodd" d="M10 20C15.5228 20 20 15.5228 20 10C20 4.47715 15.5228 0 10 0C4.47715 0 0 4.47715 0 10C0 15.5228 4.47715 20 10 20ZM10 17C13.866 17 17 13.866 17 10C17 6.13401 13.866 3 10 3C6.13401 3 3 6.13401 3 10C3 13.866 6.13401 17 10 17Z" fill="#2eb0c7"/></g><g transform="translate(384.58,325.42) scale(1.4789999999999999) rotate(0)"><path fill-rule="evenodd" clip-rule="evenodd" d="M10 20C15.5228 20 20 15.5228 20 10C20 4.47715 15.5228 0 10 0C4.47715 0 0 4.47715 0 10C0 15.5228 4.47715 20 10 20ZM10 17C13.866 17 17 13.866 17 10C17 6.13401 13.866 3 10 3C6.13401 3 3 6.13401 3 10C3 13.866 6.13401 17 10 17Z" fill="#f035bb"/></g><polygon points="443.75,325.42 443.75,355 414.17,355" fill="#315f66"/><g transform="translate(443.75,325.42) scale(1.4789999999999999) rotate(0)"><path fill-rule="evenodd" clip-rule="evenodd" d="M10 20C15.5228 20 20 15.5228 20 10C20 4.47715 15.5228 0 10 0C4.47715 0 0 4.47715 0 10C0 15.5228 4.47715 20 10 20ZM10 17C13.866 17 17 13.866 17 10C17 6.13401 13.866 3 10 3C6.13401 3 3 6.13401 3 10C3 13.866 6.13401 17 10 17Z" fill="#9715a8"/></g><polygon points="502.90999999999997,325.42 502.90999999999997,355 473.33,355" fill="#70217a"/></g></svg>