<?xml version="1.0" standalone="no"?><svg xmlns:xlink="http://www.w3.org/1999/xlink" xmlns="http://www.w3.org/2000/svg" viewBox="0 0 2000 666.6443514644351" preserveAspectRatio="xMaxYMax slice"><g transform="scale(2.092050209205021)"><rect x="0" y="0" width="956" height="318.6666666666667" fill="#333333"/><path d="M 191.2 127.46 A 63.73 63.73 0 0 1  254.92999999999998 63.73 L 191.2 127.46 A 63.73 63.73 0 0 0 254.92999999999998 63.73" fill="#5b2761"/><path d="M 318.67 127.46 A 63.73 63.73 0 0 1  382.40000000000003 63.73 L 318.67 127.46 A 63.73 63.73 0 0 0 382.40000000000003 63.73" fill="#30818f"/><rect x="382.4" y="63.733333333333334" width="63.733333333333334" height="63.733333333333334" fill="#333333"/><path d="M 382.4 95.6 A 31.87 31.87 0 0 1  414.27 127.47 L 382.4 95.6 A 31.87 31.87 0 0 0 414.27 127.47" fill="#2eb0c7"/><rect x="509.8666666666667" y="63.733333333333334" width="63.733333333333334" height="63.733333333333334" fill="#333333"/><path d="M 541.73 63.73 A 31.87 31.87 0 0 1  573.6 95.6 L 541.73 63.73 A 31.87 31.87 0 0 0 573.6 95.6" fill="#307c89"/><path d="M 541.73 95.6 A 31.87 31.87 0 0 1  573.6 127.47 L 541.73 95.6 A 31.87 31.87 0 0 0 573.6 127.47" fill="#5c2763"/><rect x="0" y="127.46666666666667" width="63.733333333333334" height="63.733333333333334" fill="#333333"/><path d="M 31.87 127.47 A 31.87 31.87 0 0 1  63.74 159.34 L 31.87 127.47 A 31.87 31.87 0 0 0 63.74 159.34" fill="#8b189a"/><path d="M 127.47 191.2 A 63.73 63.73 0 0 1  191.2 127.47 L 127.47 191.2 A 63.73 63.73 0 0 0 191.2 127.47" fill="#333737"/><path d="M 318.67 191.2 A 63.73 63.73 0 0 1  382.40000000000003 127.47 L 318.67 191.2 A 63.73 63.73 0 0 0 382.40000000000003 127.47" fill="#9c13ae"/><path d="M 382.4 191.2 A 63.73 63.73 0 0 1  446.13 127.47 L 382.4 191.2 A 63.73 63.73 0 0 0 446.13 127.47" fill="#307e8c"/><path d="M 446.13 127.47 A 63.73 63.73 0 0 1  509.86 191.2 L 446.13 127.47 A 63.73 63.73 0 0 0 509.86 191.2" fill="#b10dc7"/><rect x="701.0666666666667" y="127.46666666666667" width="63.733333333333334" height="63.733333333333334" fill="#333333"/><path d="M 701.07 159.33 A 31.87 31.87 0 0 1  732.94 191.20000000000002 L 701.07 159.33 A 31.87 31.87 0 0 0 732.94 191.20000000000002" fill="#b83493"/><path d="M 764.8 127.47 A 63.73 63.73 0 0 1  828.53 191.2 L 764.8 127.47 A 63.73 63.73 0 0 0 828.53 191.2" fill="#5c3350"/><path d="M 828.53 127.47 A 63.73 63.73 0 0 1  892.26 191.2 L 828.53 127.47 A 63.73 63.73 0 0 0 892.26 191.2" fill="#d835a9"/><rect x="892.2666666666667" y="127.46666666666667" width="63.733333333333334" height="63.733333333333334" fill="#333333"/><path d="M 892.27 159.33 A 31.87 31.87 0 0 1  924.14 191.20000000000002 L 892.27 159.33 A 31.87 31.87 0 0 0 924.14 191.20000000000002" fill="#9216a3"/><rect x="0" y="191.2" width="63.733333333333334" height="63.733333333333334" fill="#333333"/><path d="M 31.87 223.07 A 31.87 31.87 0 0 1  63.74 191.2 L 31.87 223.07 A 31.87 31.87 0 0 0 63.74 191.2" fill="#2f9aad"/><path d="M 0 223.07 A 31.87 31.87 0 0 1  31.87 254.94 L 0 223.07 A 31.87 31.87 0 0 0 31.87 254.94" fill="#316e79"/><path d="M 63.73 191.2 A 63.73 63.73 0 0 1  127.46 254.92999999999998 L 63.73 191.2 A 63.73 63.73 0 0 0 127.46 254.92999999999998" fill="#7b3467"/><path d="M 127.47 191.2 A 63.73 63.73 0 0 1  191.2 254.92999999999998 L 127.47 191.2 A 63.73 63.73 0 0 0 191.2 254.92999999999998" fill="#315f67"/><rect x="318.6666666666667" y="191.2" width="63.733333333333334" height="63.733333333333334" fill="#333333"/><path d="M 350.53 191.2 A 31.87 31.87 0 0 1  382.4 223.07 L 350.53 191.2 A 31.87 31.87 0 0 0 382.4 223.07" fill="#2dcfeb"/><path d="M 350.53 254.94 A 31.87 31.87 0 0 1  382.4 223.07 L 350.53 254.94 A 31.87 31.87 0 0 0 382.4 223.07" fill="#2eb8d0"/><path d="M 446.13 254.92999999999998 A 63.73 63.73 0 0 1  509.86 191.2 L 446.13 254.92999999999998 A 63.73 63.73 0 0 0 509.86 191.2" fill="#2ec3dd"/><path d="M 509.87 191.2 A 63.73 63.73 0 0 1  573.6 254.92999999999998 L 509.87 191.2 A 63.73 63.73 0 0 0 573.6 254.92999999999998" fill="#2f95a7"/><path d="M 637.33 254.92999999999998 A 63.73 63.73 0 0 1  701.0600000000001 191.2 L 637.33 254.92999999999998 A 63.73 63.73 0 0 0 701.0600000000001 191.2" fill="#8e3474"/><path d="M 701.07 254.92999999999998 A 63.73 63.73 0 0 1  764.8000000000001 191.2 L 701.07 254.92999999999998 A 63.73 63.73 0 0 0 764.8000000000001 191.2" fill="#308a9a"/><path d="M 892.27 191.2 A 63.73 63.73 0 0 1  956 254.92999999999998 L 892.27 191.2 A 63.73 63.73 0 0 0 956 254.92999999999998" fill="#d335a6"/><path d="M 0 254.93 A 63.73 63.73 0 0 1  63.73 318.66 L 0 254.93 A 63.73 63.73 0 0 0 63.73 318.66" fill="#2fa4b8"/><rect x="63.733333333333334" y="254.93333333333334" width="63.733333333333334" height="63.733333333333334" fill="#333333"/><path d="M 63.73 286.8 A 31.87 31.87 0 0 1  95.6 254.93 L 63.73 286.8 A 31.87 31.87 0 0 0 95.6 254.93" fill="#2f96a8"/><path d="M 95.6 254.93 A 31.87 31.87 0 0 1  127.47 286.8 L 95.6 254.93 A 31.87 31.87 0 0 0 127.47 286.8" fill="#42333e"/><path d="M 63.73 286.8 A 31.87 31.87 0 0 1  95.6 318.67 L 63.73 286.8 A 31.87 31.87 0 0 0 95.6 318.67" fill="#2ec2dc"/><path d="M 95.6 318.67 A 31.87 31.87 0 0 1  127.47 286.8 L 95.6 318.67 A 31.87 31.87 0 0 0 127.47 286.8" fill="#31737e"/><path d="M 127.47 318.66 A 63.73 63.73 0 0 1  191.2 254.93 L 127.47 318.66 A 63.73 63.73 0 0 0 191.2 254.93" fill="#316c77"/><rect x="191.2" y="254.93333333333334" width="63.733333333333334" height="63.733333333333334" fill="#333333"/><path d="M 191.2 254.93 A 31.87 31.87 0 0 1  223.07 286.8 L 191.2 254.93 A 31.87 31.87 0 0 0 223.07 286.8" fill="#e435b2"/><path d="M 223.07 254.93 A 31.87 31.87 0 0 1  254.94 286.8 L 223.07 254.93 A 31.87 31.87 0 0 0 254.94 286.8" fill="#7d1d89"/><path d="M 191.2 286.8 A 31.87 31.87 0 0 1  223.07 318.67 L 191.2 286.8 A 31.87 31.87 0 0 0 223.07 318.67" fill="#54295a"/><path d="M 223.07 318.67 A 31.87 31.87 0 0 1  254.94 286.8 L 223.07 318.67 A 31.87 31.87 0 0 0 254.94 286.8" fill="#4f3347"/><path d="M 254.93 318.66 A 63.73 63.73 0 0 1  318.66 254.93 L 254.93 318.66 A 63.73 63.73 0 0 0 318.66 254.93" fill="#b00dc5"/><path d="M 318.67 318.66 A 63.73 63.73 0 0 1  382.40000000000003 254.93 L 318.67 318.66 A 63.73 63.73 0 0 0 382.40000000000003 254.93" fill="#316d78"/><rect x="382.4" y="254.93333333333334" width="63.733333333333334" height="63.733333333333334" fill="#333333"/><path d="M 382.4 286.8 A 31.87 31.87 0 0 1  414.27 254.93 L 382.4 286.8 A 31.87 31.87 0 0 0 414.27 254.93" fill="#81346b"/><path d="M 414.27 286.8 A 31.87 31.87 0 0 1  446.14 254.93 L 414.27 286.8 A 31.87 31.87 0 0 0 446.14 254.93" fill="#63246b"/><path d="M 382.4 318.67 A 31.87 31.87 0 0 1  414.27 286.8 L 382.4 318.67 A 31.87 31.87 0 0 0 414.27 286.8" fill="#333f41"/><path d="M 414.27 318.67 A 31.87 31.87 0 0 1  446.14 286.8 L 414.27 318.67 A 31.87 31.87 0 0 0 446.14 286.8" fill="#871a95"/><rect x="446.1333333333333" y="254.93333333333334" width="63.733333333333334" height="63.733333333333334" fill="#333333"/><path d="M 446.13 254.93 A 31.87 31.87 0 0 1  478 286.8 L 446.13 254.93 A 31.87 31.87 0 0 0 478 286.8" fill="#753463"/><path d="M 478 286.8 A 31.87 31.87 0 0 1  509.87 254.93 L 478 286.8 A 31.87 31.87 0 0 0 509.87 254.93" fill="#333333"/><path d="M 446.13 318.67 A 31.87 31.87 0 0 1  478 286.8 L 446.13 318.67 A 31.87 31.87 0 0 0 478 286.8" fill="#933478"/><path d="M 478 318.67 A 31.87 31.87 0 0 1  509.87 286.8 L 478 318.67 A 31.87 31.87 0 0 0 509.87 286.8" fill="#2fa5b9"/><rect x="573.6" y="254.93333333333334" width="63.733333333333334" height="63.733333333333334" fill="#333333"/><path d="M 573.6 286.8 A 31.87 31.87 0 0 1  605.47 254.93 L 573.6 286.8 A 31.87 31.87 0 0 0 605.47 254.93" fill="#e835b5"/><path d="M 605.47 286.8 A 31.87 31.87 0 0 1  637.34 254.93 L 605.47 286.8 A 31.87 31.87 0 0 0 637.34 254.93" fill="#f835c0"/><path d="M 573.6 286.8 A 31.87 31.87 0 0 1  605.47 318.67 L 573.6 286.8 A 31.87 31.87 0 0 0 605.47 318.67" fill="#333333"/><path d="M 605.47 318.67 A 31.87 31.87 0 0 1  637.34 286.8 L 605.47 318.67 A 31.87 31.87 0 0 0 637.34 286.8" fill="#f335bd"/><path d="M 637.33 254.93 A 63.73 63.73 0 0 1  701.0600000000001 318.66 L 637.33 254.93 A 63.73 63.73 0 0 0 701.0600000000001 318.66" fill="#502a54"/><path d="M 701.07 318.66 A 63.73 63.73 0 0 1  764.8000000000001 254.93 L 701.07 318.66 A 63.73 63.73 0 0 0 764.8000000000001 254.93" fill="#851a93"/><rect x="764.8" y="254.93333333333334" width="63.733333333333334" height="63.733333333333334" fill="#333333"/><path d="M 796.67 286.8 A 31.87 31.87 0 0 1  828.54 254.93 L 796.67 286.8 A 31.87 31.87 0 0 0 828.54 254.93" fill="#31626b"/><path d="M 764.8 318.67 A 31.87 31.87 0 0 1  796.67 286.8 L 764.8 318.67 A 31.87 31.87 0 0 0 796.67 286.8" fill="#308898"/><path d="M 796.67 318.67 A 31.87 31.87 0 0 1  828.54 286.8 L 796.67 318.67 A 31.87 31.87 0 0 0 828.54 286.8" fill="#307d8a"/><rect x="828.5333333333333" y="254.93333333333334" width="63.733333333333334" height="63.733333333333334" fill="#333333"/><path d="M 828.53 286.8 A 31.87 31.87 0 0 1  860.4 254.93 L 828.53 286.8 A 31.87 31.87 0 0 0 860.4 254.93" fill="#31636c"/><path d="M 860.4 254.93 A 31.87 31.87 0 0 1  892.27 286.8 L 860.4 254.93 A 31.87 31.87 0 0 0 892.27 286.8" fill="#383336"/><path d="M 828.53 318.67 A 31.87 31.87 0 0 1  860.4 286.8 L 828.53 318.67 A 31.87 31.87 0 0 0 860.4 286.8" fill="#bd3496"/><path d="M 860.4 286.8 A 31.87 31.87 0 0 1  892.27 318.67 L 860.4 286.8 A 31.87 31.87 0 0 0 892.27 318.67" fill="#69345a"/><path d="M 892.27 318.66 A 63.73 63.73 0 0 1  956 254.93 L 892.27 318.66 A 63.73 63.73 0 0 0 956 254.93" fill="#e635b3"/></g></svg>