<?xml version="1.0" standalone="no"?><svg xmlns:xlink="http://www.w3.org/1999/xlink" xmlns="http://www.w3.org/2000/svg" viewBox="0 0 1000 545.4590152851445" preserveAspectRatio="xMaxYMax slice"><g transform="scale(1.5365042684088577)"><rect x="0" y="0" width="650.8333333333333" height="355" fill="#333333"/><rect x="0" y="59.166666666666664" width="59.166666666666664" height="59.166666666666664" fill="#333333"/><path d="M 0 88.75 A 29.58 29.58 0 0 1  29.58 118.33 L 0 88.75 A 29.58 29.58 0 0 0 29.58 118.33" fill="#324346"/><rect x="236.66666666666666" y="59.166666666666664" width="59.166666666666664" height="59.166666666666664" fill="#333333"/><rect x="473.3333333333333" y="59.166666666666664" width="59.166666666666664" height="59.166666666666664" fill="#333333"/><path d="M 502.92 88.75 A 29.58 29.58 0 0 1  532.5 59.17 L 502.92 88.75 A 29.58 29.58 0 0 0 532.5 59.17" fill="#692372"/><rect x="0" y="118.33333333333333" width="59.166666666666664" height="59.166666666666664" fill="#333333"/><path d="M 0 147.91 A 29.58 29.58 0 0 1  29.58 118.33 L 0 147.91 A 29.58 29.58 0 0 0 29.58 118.33" fill="#353235"/><path d="M 29.58 177.5 A 29.58 29.58 0 0 1  59.16 147.92 L 29.58 177.5 A 29.58 29.58 0 0 0 59.16 147.92" fill="#2f92a3"/><rect x="177.5" y="118.33333333333333" width="59.166666666666664" height="59.166666666666664" fill="#333333"/><path d="M 207.08 118.33 A 29.58 29.58 0 0 1  236.66000000000003 147.91 L 207.08 118.33 A 29.58 29.58 0 0 0 236.66000000000003 147.91" fill="#9416a5"/><path d="M 177.5 147.92 A 29.58 29.58 0 0 1  207.07999999999998 177.5 L 177.5 147.92 A 29.58 29.58 0 0 0 207.07999999999998 177.5" fill="#3c303e"/><rect x="295.8333333333333" y="118.33333333333333" width="59.166666666666664" height="59.166666666666664" fill="#333333"/><path d="M 295.83 147.91 A 29.58 29.58 0 0 1  325.40999999999997 118.33 L 295.83 147.91 A 29.58 29.58 0 0 0 325.40999999999997 118.33" fill="#2dcfeb"/><path d="M 295.83 147.92 A 29.58 29.58 0 0 1  325.40999999999997 177.5 L 295.83 147.92 A 29.58 29.58 0 0 0 325.40999999999997 177.5" fill="#c03498"/><path d="M 325.42 147.92 A 29.58 29.58 0 0 1  355 177.5 L 325.42 147.92 A 29.58 29.58 0 0 0 355 177.5" fill="#324f54"/><rect x="414.16666666666663" y="118.33333333333333" width="59.166666666666664" height="59.166666666666664" fill="#333333"/><path d="M 443.75 177.5 A 29.58 29.58 0 0 1  473.33 147.92 L 443.75 177.5 A 29.58 29.58 0 0 0 473.33 147.92" fill="#90179f"/><rect x="473.3333333333333" y="118.33333333333333" width="59.166666666666664" height="59.166666666666664" fill="#333333"/><path d="M 502.92 118.33 A 29.58 29.58 0 0 1  532.5 147.91 L 502.92 118.33 A 29.58 29.58 0 0 0 532.5 147.91" fill="#733461"/><path d="M 473.33 177.5 A 29.58 29.58 0 0 1  502.90999999999997 147.92 L 473.33 177.5 A 29.58 29.58 0 0 0 502.90999999999997 147.92" fill="#7a1e86"/><path d="M 502.92 147.92 A 29.58 29.58 0 0 1  532.5 177.5 L 502.92 147.92 A 29.58 29.58 0 0 0 532.5 177.5" fill="#821b90"/><rect x="118.33333333333333" y="177.5" width="59.166666666666664" height="59.166666666666664" fill="#333333"/><path d="M 118.33 207.07999999999998 A 29.58 29.58 0 0 1  147.91 177.5 L 118.33 207.07999999999998 A 29.58 29.58 0 0 0 147.91 177.5" fill="#801c8e"/><path d="M 147.92 207.08 A 29.58 29.58 0 0 1  177.5 236.66000000000003 L 147.92 207.08 A 29.58 29.58 0 0 0 177.5 236.66000000000003" fill="#532958"/><rect x="177.5" y="177.5" width="59.166666666666664" height="59.166666666666664" fill="#333333"/><path d="M 207.08 207.07999999999998 A 29.58 29.58 0 0 1  236.66000000000003 177.5 L 207.08 207.07999999999998 A 29.58 29.58 0 0 0 236.66000000000003 177.5" fill="#8d189d"/><path d="M 177.5 236.66000000000003 A 29.58 29.58 0 0 1  207.07999999999998 207.08 L 177.5 236.66000000000003 A 29.58 29.58 0 0 0 207.07999999999998 207.08" fill="#2ebcd5"/><path d="M 236.67 177.5 A 59.17 59.17 0 0 1  295.84 236.67000000000002 L 236.67 177.5 A 59.17 59.17 0 0 0 295.84 236.67000000000002" fill="#f735c0"/><rect x="295.8333333333333" y="177.5" width="59.166666666666664" height="59.166666666666664" fill="#333333"/><path d="M 295.83 207.07999999999998 A 29.58 29.58 0 0 1  325.40999999999997 177.5 L 295.83 207.07999999999998 A 29.58 29.58 0 0 0 325.40999999999997 177.5" fill="#cc35a1"/><path d="M 295.83 236.66000000000003 A 29.58 29.58 0 0 1  325.40999999999997 207.08 L 295.83 236.66000000000003 A 29.58 29.58 0 0 0 325.40999999999997 207.08" fill="#333a3c"/><path d="M 414.17 177.5 A 59.17 59.17 0 0 1  473.34000000000003 236.67000000000002 L 414.17 177.5 A 59.17 59.17 0 0 0 473.34000000000003 236.67000000000002" fill="#2eafc6"/><path d="M 532.5 177.5 A 59.17 59.17 0 0 1  591.67 236.67000000000002 L 532.5 177.5 A 59.17 59.17 0 0 0 591.67 236.67000000000002" fill="#b30cc9"/><path d="M 591.67 177.5 A 59.17 59.17 0 0 1  650.8399999999999 236.67000000000002 L 591.67 177.5 A 59.17 59.17 0 0 0 650.8399999999999 236.67000000000002" fill="#2eacc2"/><rect x="0" y="236.66666666666666" width="59.166666666666664" height="59.166666666666664" fill="#333333"/><path d="M 0 236.67 A 29.58 29.58 0 0 1  29.58 266.25 L 0 236.67 A 29.58 29.58 0 0 0 29.58 266.25" fill="#f335bd"/><path d="M 29.58 236.67 A 29.58 29.58 0 0 1  59.16 266.25 L 29.58 236.67 A 29.58 29.58 0 0 0 59.16 266.25" fill="#325258"/><path d="M 0 266.25 A 29.58 29.58 0 0 1  29.58 295.83 L 0 266.25 A 29.58 29.58 0 0 0 29.58 295.83" fill="#324d51"/><path d="M 29.58 266.25 A 29.58 29.58 0 0 1  59.16 295.83 L 29.58 266.25 A 29.58 29.58 0 0 0 59.16 295.83" fill="#2dcfeb"/><path d="M 59.17 236.67 A 59.17 59.17 0 0 1  118.34 295.84 L 59.17 236.67 A 59.17 59.17 0 0 0 118.34 295.84" fill="#3c303e"/><rect x="118.33333333333333" y="236.66666666666666" width="59.166666666666664" height="59.166666666666664" fill="#333333"/><path d="M 118.33 266.25 A 29.58 29.58 0 0 1  147.91 236.67 L 118.33 266.25 A 29.58 29.58 0 0 0 147.91 236.67" fill="#73207d"/><path d="M 295.83 236.67 A 59.17 59.17 0 0 1  355 295.84 L 295.83 236.67 A 59.17 59.17 0 0 0 355 295.84" fill="#307d8b"/><path d="M 355 295.84 A 59.17 59.17 0 0 1  414.17 236.67 L 355 295.84 A 59.17 59.17 0 0 0 414.17 236.67" fill="#473342"/><rect x="414.16666666666663" y="236.66666666666666" width="59.166666666666664" height="59.166666666666664" fill="#333333"/><path d="M 414.17 236.67 A 29.58 29.58 0 0 1  443.75 266.25 L 414.17 236.67 A 29.58 29.58 0 0 0 443.75 266.25" fill="#363237"/><path d="M 443.75 266.25 A 29.58 29.58 0 0 1  473.33 236.67 L 443.75 266.25 A 29.58 29.58 0 0 0 473.33 236.67" fill="#6c345c"/><path d="M 443.75 295.83 A 29.58 29.58 0 0 1  473.33 266.25 L 443.75 295.83 A 29.58 29.58 0 0 0 473.33 266.25" fill="#30808e"/><path d="M 473.33 236.67 A 59.17 59.17 0 0 1  532.5 295.84 L 473.33 236.67 A 59.17 59.17 0 0 0 532.5 295.84" fill="#fc35c3"/><rect x="532.5" y="236.66666666666666" width="59.166666666666664" height="59.166666666666664" fill="#333333"/><path d="M 532.5 236.67 A 29.58 29.58 0 0 1  562.08 266.25 L 532.5 236.67 A 29.58 29.58 0 0 0 562.08 266.25" fill="#333333"/><path d="M 562.08 266.25 A 29.58 29.58 0 0 1  591.6600000000001 236.67 L 562.08 266.25 A 29.58 29.58 0 0 0 591.6600000000001 236.67" fill="#8a1999"/><path d="M 532.5 295.83 A 29.58 29.58 0 0 1  562.08 266.25 L 532.5 295.83 A 29.58 29.58 0 0 0 562.08 266.25" fill="#333b3d"/><path d="M 562.08 295.83 A 29.58 29.58 0 0 1  591.6600000000001 266.25 L 562.08 295.83 A 29.58 29.58 0 0 0 591.6600000000001 266.25" fill="#9d13b0"/><path d="M 591.67 236.67 A 59.17 59.17 0 0 1  650.8399999999999 295.84 L 591.67 236.67 A 59.17 59.17 0 0 0 650.8399999999999 295.84" fill="#316068"/><rect x="0" y="295.8333333333333" width="59.166666666666664" height="59.166666666666664" fill="#333333"/><path d="M 0 295.83 A 29.58 29.58 0 0 1  29.58 325.40999999999997 L 0 295.83 A 29.58 29.58 0 0 0 29.58 325.40999999999997" fill="#69345a"/><path d="M 29.58 295.83 A 29.58 29.58 0 0 1  59.16 325.40999999999997 L 29.58 295.83 A 29.58 29.58 0 0 0 59.16 325.40999999999997" fill="#2eafc5"/><path d="M 0 355 A 29.58 29.58 0 0 1  29.58 325.42 L 0 355 A 29.58 29.58 0 0 0 29.58 325.42" fill="#e235b1"/><path d="M 29.58 325.42 A 29.58 29.58 0 0 1  59.16 355 L 29.58 325.42 A 29.58 29.58 0 0 0 59.16 355" fill="#a83487"/><path d="M 59.17 295.83 A 59.17 59.17 0 0 1  118.34 355 L 59.17 295.83 A 59.17 59.17 0 0 0 118.34 355" fill="#953479"/><rect x="118.33333333333333" y="295.8333333333333" width="59.166666666666664" height="59.166666666666664" fill="#333333"/><path d="M 118.33 325.40999999999997 A 29.58 29.58 0 0 1  147.91 295.83 L 118.33 325.40999999999997 A 29.58 29.58 0 0 0 147.91 295.83" fill="#c7349d"/><path d="M 147.92 325.40999999999997 A 29.58 29.58 0 0 1  177.5 295.83 L 147.92 325.40999999999997 A 29.58 29.58 0 0 0 177.5 295.83" fill="#ec35b8"/><path d="M 118.33 355 A 29.58 29.58 0 0 1  147.91 325.42 L 118.33 355 A 29.58 29.58 0 0 0 147.91 325.42" fill="#32474a"/><path d="M 147.92 325.42 A 29.58 29.58 0 0 1  177.5 355 L 147.92 325.42 A 29.58 29.58 0 0 0 177.5 355" fill="#2faac0"/><rect x="177.5" y="295.8333333333333" width="59.166666666666664" height="59.166666666666664" fill="#333333"/><path d="M 177.5 325.40999999999997 A 29.58 29.58 0 0 1  207.07999999999998 295.83 L 177.5 325.40999999999997 A 29.58 29.58 0 0 0 207.07999999999998 295.83" fill="#8d3474"/><path d="M 207.08 295.83 A 29.58 29.58 0 0 1  236.66000000000003 325.40999999999997 L 207.08 295.83 A 29.58 29.58 0 0 0 236.66000000000003 325.40999999999997" fill="#2f92a4"/><path d="M 177.5 355 A 29.58 29.58 0 0 1  207.07999999999998 325.42 L 177.5 355 A 29.58 29.58 0 0 0 207.07999999999998 325.42" fill="#2dd1ee"/><path d="M 207.08 355 A 29.58 29.58 0 0 1  236.66000000000003 325.42 L 207.08 355 A 29.58 29.58 0 0 0 236.66000000000003 325.42" fill="#b30cc8"/><rect x="236.66666666666666" y="295.8333333333333" width="59.166666666666664" height="59.166666666666664" fill="#333333"/><path d="M 236.67 325.40999999999997 A 29.58 29.58 0 0 1  266.25 295.83 L 236.67 325.40999999999997 A 29.58 29.58 0 0 0 266.25 295.83" fill="#31656d"/><path d="M 266.25 295.83 A 29.58 29.58 0 0 1  295.83 325.40999999999997 L 266.25 295.83 A 29.58 29.58 0 0 0 295.83 325.40999999999997" fill="#316973"/><path d="M 236.67 325.42 A 29.58 29.58 0 0 1  266.25 355 L 236.67 325.42 A 29.58 29.58 0 0 0 266.25 355" fill="#a610ba"/><path d="M 266.25 325.42 A 29.58 29.58 0 0 1  295.83 355 L 266.25 325.42 A 29.58 29.58 0 0 0 295.83 355" fill="#315e66"/><path d="M 295.83 355 A 59.17 59.17 0 0 1  355 295.83 L 295.83 355 A 59.17 59.17 0 0 0 355 295.83" fill="#2ec3dd"/><rect x="355" y="295.8333333333333" width="59.166666666666664" height="59.166666666666664" fill="#333333"/><path d="M 355 295.83 A 29.58 29.58 0 0 1  384.58 325.40999999999997 L 355 295.83 A 29.58 29.58 0 0 0 384.58 325.40999999999997" fill="#f535be"/><path d="M 384.58 325.40999999999997 A 29.58 29.58 0 0 1  414.15999999999997 295.83 L 384.58 325.40999999999997 A 29.58 29.58 0 0 0 414.15999999999997 295.83" fill="#e735b4"/><path d="M 355 325.42 A 29.58 29.58 0 0 1  384.58 355 L 355 325.42 A 29.58 29.58 0 0 0 384.58 355" fill="#d835aa"/><path d="M 384.58 355 A 29.58 29.58 0 0 1  414.15999999999997 325.42 L 384.58 355 A 29.58 29.58 0 0 0 414.15999999999997 325.42" fill="#542959"/><path d="M 414.17 295.83 A 59.17 59.17 0 0 1  473.34000000000003 355 L 414.17 295.83 A 59.17 59.17 0 0 0 473.34000000000003 355" fill="#663457"/><rect x="473.3333333333333" y="295.8333333333333" width="59.166666666666664" height="59.166666666666664" fill="#333333"/><path d="M 473.33 325.40999999999997 A 29.58 29.58 0 0 1  502.90999999999997 295.83 L 473.33 325.40999999999997 A 29.58 29.58 0 0 0 502.90999999999997 295.83" fill="#96347a"/><path d="M 502.92 325.40999999999997 A 29.58 29.58 0 0 1  532.5 295.83 L 502.92 325.40999999999997 A 29.58 29.58 0 0 0 532.5 295.83" fill="#943479"/><path d="M 473.33 325.42 A 29.58 29.58 0 0 1  502.90999999999997 355 L 473.33 325.42 A 29.58 29.58 0 0 0 502.90999999999997 355" fill="#324143"/><path d="M 502.92 355 A 29.58 29.58 0 0 1  532.5 325.42 L 502.92 355 A 29.58 29.58 0 0 0 532.5 325.42" fill="#32585f"/><rect x="532.5" y="295.8333333333333" width="59.166666666666664" height="59.166666666666664" fill="#333333"/><path d="M 532.5 325.40999999999997 A 29.58 29.58 0 0 1  562.08 295.83 L 532.5 325.40999999999997 A 29.58 29.58 0 0 0 562.08 295.83" fill="#324d52"/><path d="M 562.08 325.40999999999997 A 29.58 29.58 0 0 1  591.6600000000001 295.83 L 562.08 325.40999999999997 A 29.58 29.58 0 0 0 591.6600000000001 295.83" fill="#373336"/><path d="M 532.5 355 A 29.58 29.58 0 0 1  562.08 325.42 L 532.5 355 A 29.58 29.58 0 0 0 562.08 325.42" fill="#2fa3b7"/><path d="M 562.08 355 A 29.58 29.58 0 0 1  591.6600000000001 325.42 L 562.08 355 A 29.58 29.58 0 0 0 591.6600000000001 325.42" fill="#a211b5"/><path d="M 591.67 355 A 59.17 59.17 0 0 1  650.8399999999999 295.83 L 591.67 355 A 59.17 59.17 0 0 0 650.8399999999999 295.83" fill="#8d189d"/></g></svg>