<?xml version="1.0" standalone="no"?><svg xmlns:xlink="http://www.w3.org/1999/xlink" xmlns="http://www.w3.org/2000/svg" viewBox="0 0 1000 545.4578860578667" preserveAspectRatio="xMaxYMax slice"><g transform="scale(1.1483323917007722)"><rect x="0" y="0" width="870.8333333333334" height="475" fill="#ffffff"/><rect x="316.6666666666667" y="79.16666666666667" width="79.16666666666667" height="79.16666666666667" fill="#ffffff"/><path d="M 356.25 79.17 A 39.58 39.58 0 0 1  395.83 118.75 L 356.25 79.17 A 39.58 39.58 0 0 0 395.83 118.75" fill="#e09fff"/><path d="M 395.83 158.34 A 79.17 79.17 0 0 1  475 79.17 L 395.83 158.34 A 79.17 79.17 0 0 0 475 79.17" fill="#adbbf4"/><path d="M 791.67 158.34 A 79.17 79.17 0 0 1  870.8399999999999 79.17 L 791.67 158.34 A 79.17 79.17 0 0 0 870.8399999999999 79.17" fill="#607bea"/><path d="M 0 237.5 A 79.17 79.17 0 0 1  79.17 158.33 L 0 237.5 A 79.17 79.17 0 0 0 79.17 158.33" fill="#f8e9ff"/><rect x="475" y="158.33333333333334" width="79.16666666666667" height="79.16666666666667" fill="#ffffff"/><path d="M 514.58 197.91000000000003 A 39.58 39.58 0 0 1  554.1600000000001 158.33 L 514.58 197.91000000000003 A 39.58 39.58 0 0 0 554.1600000000001 158.33" fill="#f5e0ff"/><path d="M 514.58 197.92 A 39.58 39.58 0 0 1  554.1600000000001 237.5 L 514.58 197.92 A 39.58 39.58 0 0 0 554.1600000000001 237.5" fill="#8ea1f0"/><rect x="633.3333333333334" y="158.33333333333334" width="79.16666666666667" height="79.16666666666667" fill="#ffffff"/><path d="M 672.92 158.33 A 39.58 39.58 0 0 1  712.5 197.91000000000003 L 672.92 158.33 A 39.58 39.58 0 0 0 712.5 197.91000000000003" fill="#c9d2f8"/><path d="M 633.33 237.5 A 39.58 39.58 0 0 1  672.9100000000001 197.92 L 633.33 237.5 A 39.58 39.58 0 0 0 672.9100000000001 197.92" fill="#1940e1"/><path d="M 791.67 237.5 A 79.17 79.17 0 0 1  870.8399999999999 158.33 L 791.67 237.5 A 79.17 79.17 0 0 0 870.8399999999999 158.33" fill="#2146e2"/><path d="M 0 316.67 A 79.17 79.17 0 0 1  79.17 237.5 L 0 316.67 A 79.17 79.17 0 0 0 79.17 237.5" fill="#f1f3fd"/><path d="M 158.33 316.67 A 79.17 79.17 0 0 1  237.5 237.5 L 158.33 316.67 A 79.17 79.17 0 0 0 237.5 237.5" fill="#e4e9fc"/><rect x="237.5" y="237.5" width="79.16666666666667" height="79.16666666666667" fill="#ffffff"/><path d="M 277.08 237.5 A 39.58 39.58 0 0 1  316.65999999999997 277.08 L 277.08 237.5 A 39.58 39.58 0 0 0 316.65999999999997 277.08" fill="#e7b5ff"/><path d="M 277.08 277.08 A 39.58 39.58 0 0 1  316.65999999999997 316.65999999999997 L 277.08 277.08 A 39.58 39.58 0 0 0 316.65999999999997 316.65999999999997" fill="#c9d2f8"/><rect x="395.83333333333337" y="237.5" width="79.16666666666667" height="79.16666666666667" fill="#ffffff"/><path d="M 395.83 277.08 A 39.58 39.58 0 0 1  435.40999999999997 237.5 L 395.83 277.08 A 39.58 39.58 0 0 0 435.40999999999997 237.5" fill="#e3e8fb"/><path d="M 395.83 316.65999999999997 A 39.58 39.58 0 0 1  435.40999999999997 277.08 L 395.83 316.65999999999997 A 39.58 39.58 0 0 0 435.40999999999997 277.08" fill="#2046e2"/><path d="M 435.42 277.08 A 39.58 39.58 0 0 1  475 316.65999999999997 L 435.42 277.08 A 39.58 39.58 0 0 0 475 316.65999999999997" fill="#ebeffc"/><path d="M 633.33 316.67 A 79.17 79.17 0 0 1  712.5 237.5 L 633.33 316.67 A 79.17 79.17 0 0 0 712.5 237.5" fill="#d7defa"/><rect x="712.5" y="237.5" width="79.16666666666667" height="79.16666666666667" fill="#ffffff"/><path d="M 712.5 277.08 A 39.58 39.58 0 0 1  752.08 237.5 L 712.5 277.08 A 39.58 39.58 0 0 0 752.08 237.5" fill="#dde3fb"/><path d="M 752.08 277.08 A 39.58 39.58 0 0 1  791.6600000000001 237.5 L 752.08 277.08 A 39.58 39.58 0 0 0 791.6600000000001 237.5" fill="#d57aff"/><path d="M 752.08 277.08 A 39.58 39.58 0 0 1  791.6600000000001 316.65999999999997 L 752.08 277.08 A 39.58 39.58 0 0 0 791.6600000000001 316.65999999999997" fill="#bdc8f6"/><rect x="791.6666666666667" y="237.5" width="79.16666666666667" height="79.16666666666667" fill="#ffffff"/><path d="M 791.67 237.5 A 39.58 39.58 0 0 1  831.25 277.08 L 791.67 237.5 A 39.58 39.58 0 0 0 831.25 277.08" fill="#8ea1f0"/><path d="M 791.67 277.08 A 39.58 39.58 0 0 1  831.25 316.65999999999997 L 791.67 277.08 A 39.58 39.58 0 0 0 831.25 316.65999999999997" fill="#c23fff"/><path d="M 831.25 277.08 A 39.58 39.58 0 0 1  870.83 316.65999999999997 L 831.25 277.08 A 39.58 39.58 0 0 0 870.83 316.65999999999997" fill="#5975e9"/><path d="M 0 395.84000000000003 A 79.17 79.17 0 0 1  79.17 316.67 L 0 395.84000000000003 A 79.17 79.17 0 0 0 79.17 316.67" fill="#506ee8"/><rect x="79.16666666666667" y="316.6666666666667" width="79.16666666666667" height="79.16666666666667" fill="#ffffff"/><path d="M 79.17 316.67 A 39.58 39.58 0 0 1  118.75 356.25 L 79.17 316.67 A 39.58 39.58 0 0 0 118.75 356.25" fill="#6b84ec"/><path d="M 118.75 356.25 A 39.58 39.58 0 0 1  158.32999999999998 316.67 L 118.75 356.25 A 39.58 39.58 0 0 0 158.32999999999998 316.67" fill="#f5e0ff"/><path d="M 79.17 356.25 A 39.58 39.58 0 0 1  118.75 395.83 L 79.17 356.25 A 39.58 39.58 0 0 0 118.75 395.83" fill="#d272ff"/><path d="M 118.75 395.83 A 39.58 39.58 0 0 1  158.32999999999998 356.25 L 118.75 395.83 A 39.58 39.58 0 0 0 158.32999999999998 356.25" fill="#6881eb"/><path d="M 158.33 316.67 A 79.17 79.17 0 0 1  237.5 395.84000000000003 L 158.33 316.67 A 79.17 79.17 0 0 0 237.5 395.84000000000003" fill="#254ae3"/><rect x="237.5" y="316.6666666666667" width="79.16666666666667" height="79.16666666666667" fill="#ffffff"/><path d="M 237.5 356.25 A 39.58 39.58 0 0 1  277.08 316.67 L 237.5 356.25 A 39.58 39.58 0 0 0 277.08 316.67" fill="#a8b7f4"/><path d="M 277.08 356.25 A 39.58 39.58 0 0 1  316.65999999999997 316.67 L 277.08 356.25 A 39.58 39.58 0 0 0 316.65999999999997 316.67" fill="#c956ff"/><path d="M 237.5 395.83 A 39.58 39.58 0 0 1  277.08 356.25 L 237.5 395.83 A 39.58 39.58 0 0 0 277.08 356.25" fill="#6b84ec"/><path d="M 277.08 395.83 A 39.58 39.58 0 0 1  316.65999999999997 356.25 L 277.08 395.83 A 39.58 39.58 0 0 0 316.65999999999997 356.25" fill="#d1d9f9"/><path d="M 316.67 316.67 A 79.17 79.17 0 0 1  395.84000000000003 395.84000000000003 L 316.67 316.67 A 79.17 79.17 0 0 0 395.84000000000003 395.84000000000003" fill="#a8b6f4"/><rect x="554.1666666666667" y="316.6666666666667" width="79.16666666666667" height="79.16666666666667" fill="#ffffff"/><path d="M 554.17 356.25 A 39.58 39.58 0 0 1  593.75 316.67 L 554.17 356.25 A 39.58 39.58 0 0 0 593.75 316.67" fill="#617ceb"/><path d="M 593.75 356.25 A 39.58 39.58 0 0 1  633.33 316.67 L 593.75 356.25 A 39.58 39.58 0 0 0 633.33 316.67" fill="#5c78ea"/><rect x="633.3333333333334" y="316.6666666666667" width="79.16666666666667" height="79.16666666666667" fill="#ffffff"/><path d="M 633.33 316.67 A 39.58 39.58 0 0 1  672.9100000000001 356.25 L 633.33 316.67 A 39.58 39.58 0 0 0 672.9100000000001 356.25" fill="#fcf4ff"/><path d="M 633.33 395.83 A 39.58 39.58 0 0 1  672.9100000000001 356.25 L 633.33 395.83 A 39.58 39.58 0 0 0 672.9100000000001 356.25" fill="#8498ef"/><path d="M 672.92 356.25 A 39.58 39.58 0 0 1  712.5 395.83 L 672.92 356.25 A 39.58 39.58 0 0 0 712.5 395.83" fill="#738bed"/><rect x="712.5" y="316.6666666666667" width="79.16666666666667" height="79.16666666666667" fill="#ffffff"/><path d="M 752.08 316.67 A 39.58 39.58 0 0 1  791.6600000000001 356.25 L 752.08 316.67 A 39.58 39.58 0 0 0 791.6600000000001 356.25" fill="#cdd6f9"/><path d="M 712.5 395.83 A 39.58 39.58 0 0 1  752.08 356.25 L 712.5 395.83 A 39.58 39.58 0 0 0 752.08 356.25" fill="#4a68e7"/><path d="M 791.67 316.67 A 79.17 79.17 0 0 1  870.8399999999999 395.84000000000003 L 791.67 316.67 A 79.17 79.17 0 0 0 870.8399999999999 395.84000000000003" fill="#ebc1ff"/><rect x="0" y="395.83333333333337" width="79.16666666666667" height="79.16666666666667" fill="#ffffff"/><path d="M 0 395.83 A 39.58 39.58 0 0 1  39.58 435.40999999999997 L 0 395.83 A 39.58 39.58 0 0 0 39.58 435.40999999999997" fill="#d781ff"/><path d="M 39.58 395.83 A 39.58 39.58 0 0 1  79.16 435.40999999999997 L 39.58 395.83 A 39.58 39.58 0 0 0 79.16 435.40999999999997" fill="#acbaf4"/><path d="M 0 435.42 A 39.58 39.58 0 0 1  39.58 475 L 0 435.42 A 39.58 39.58 0 0 0 39.58 475" fill="#ca57ff"/><path d="M 39.58 435.42 A 39.58 39.58 0 0 1  79.16 475 L 39.58 435.42 A 39.58 39.58 0 0 0 79.16 475" fill="#c445ff"/><rect x="79.16666666666667" y="395.83333333333337" width="79.16666666666667" height="79.16666666666667" fill="#ffffff"/><path d="M 79.17 435.40999999999997 A 39.58 39.58 0 0 1  118.75 395.83 L 79.17 435.40999999999997 A 39.58 39.58 0 0 0 118.75 395.83" fill="#d782ff"/><path d="M 118.75 395.83 A 39.58 39.58 0 0 1  158.32999999999998 435.40999999999997 L 118.75 395.83 A 39.58 39.58 0 0 0 158.32999999999998 435.40999999999997" fill="#c241ff"/><path d="M 79.17 475 A 39.58 39.58 0 0 1  118.75 435.42 L 79.17 475 A 39.58 39.58 0 0 0 118.75 435.42" fill="#1c42e1"/><path d="M 118.75 435.42 A 39.58 39.58 0 0 1  158.32999999999998 475 L 118.75 435.42 A 39.58 39.58 0 0 0 158.32999999999998 475" fill="#8c9ff0"/><path d="M 158.33 395.83 A 79.17 79.17 0 0 1  237.5 475 L 158.33 395.83 A 79.17 79.17 0 0 0 237.5 475" fill="#c344ff"/><rect x="237.5" y="395.83333333333337" width="79.16666666666667" height="79.16666666666667" fill="#ffffff"/><path d="M 237.5 435.40999999999997 A 39.58 39.58 0 0 1  277.08 395.83 L 237.5 435.40999999999997 A 39.58 39.58 0 0 0 277.08 395.83" fill="#3b5ce6"/><path d="M 277.08 435.40999999999997 A 39.58 39.58 0 0 1  316.65999999999997 395.83 L 277.08 435.40999999999997 A 39.58 39.58 0 0 0 316.65999999999997 395.83" fill="#d884ff"/><path d="M 237.5 475 A 39.58 39.58 0 0 1  277.08 435.42 L 237.5 475 A 39.58 39.58 0 0 0 277.08 435.42" fill="#6a83ec"/><path d="M 277.08 475 A 39.58 39.58 0 0 1  316.65999999999997 435.42 L 277.08 475 A 39.58 39.58 0 0 0 316.65999999999997 435.42" fill="#748bed"/><path d="M 316.67 475 A 79.17 79.17 0 0 1  395.84000000000003 395.83 L 316.67 475 A 79.17 79.17 0 0 0 395.84000000000003 395.83" fill="#c0cbf7"/><rect x="395.83333333333337" y="395.83333333333337" width="79.16666666666667" height="79.16666666666667" fill="#ffffff"/><path d="M 395.83 395.83 A 39.58 39.58 0 0 1  435.40999999999997 435.40999999999997 L 395.83 395.83 A 39.58 39.58 0 0 0 435.40999999999997 435.40999999999997" fill="#eef1fd"/><path d="M 435.42 395.83 A 39.58 39.58 0 0 1  475 435.40999999999997 L 435.42 395.83 A 39.58 39.58 0 0 0 475 435.40999999999997" fill="#f1f4fd"/><path d="M 395.83 475 A 39.58 39.58 0 0 1  435.40999999999997 435.42 L 395.83 475 A 39.58 39.58 0 0 0 435.40999999999997 435.42" fill="#fefdff"/><path d="M 435.42 435.42 A 39.58 39.58 0 0 1  475 475 L 435.42 435.42 A 39.58 39.58 0 0 0 475 475" fill="#c13bff"/><rect x="475" y="395.83333333333337" width="79.16666666666667" height="79.16666666666667" fill="#ffffff"/><path d="M 475 435.40999999999997 A 39.58 39.58 0 0 1  514.58 395.83 L 475 435.40999999999997 A 39.58 39.58 0 0 0 514.58 395.83" fill="#2549e3"/><path d="M 514.58 435.40999999999997 A 39.58 39.58 0 0 1  554.1600000000001 395.83 L 514.58 435.40999999999997 A 39.58 39.58 0 0 0 554.1600000000001 395.83" fill="#e6b0ff"/><path d="M 475 435.42 A 39.58 39.58 0 0 1  514.58 475 L 475 435.42 A 39.58 39.58 0 0 0 514.58 475" fill="#637eeb"/><path d="M 514.58 475 A 39.58 39.58 0 0 1  554.1600000000001 435.42 L 514.58 475 A 39.58 39.58 0 0 0 554.1600000000001 435.42" fill="#e1a2ff"/><rect x="554.1666666666667" y="395.83333333333337" width="79.16666666666667" height="79.16666666666667" fill="#ffffff"/><path d="M 554.17 395.83 A 39.58 39.58 0 0 1  593.75 435.40999999999997 L 554.17 395.83 A 39.58 39.58 0 0 0 593.75 435.40999999999997" fill="#bcc7f6"/><path d="M 593.75 435.40999999999997 A 39.58 39.58 0 0 1  633.33 395.83 L 593.75 435.40999999999997 A 39.58 39.58 0 0 0 633.33 395.83" fill="#eceffc"/><path d="M 554.17 475 A 39.58 39.58 0 0 1  593.75 435.42 L 554.17 475 A 39.58 39.58 0 0 0 593.75 435.42" fill="#4766e7"/><path d="M 593.75 435.42 A 39.58 39.58 0 0 1  633.33 475 L 593.75 435.42 A 39.58 39.58 0 0 0 633.33 475" fill="#d1d9f9"/><path d="M 633.33 475 A 79.17 79.17 0 0 1  712.5 395.83 L 633.33 475 A 79.17 79.17 0 0 0 712.5 395.83" fill="#8095ee"/><rect x="712.5" y="395.83333333333337" width="79.16666666666667" height="79.16666666666667" fill="#ffffff"/><path d="M 712.5 395.83 A 39.58 39.58 0 0 1  752.08 435.40999999999997 L 712.5 395.83 A 39.58 39.58 0 0 0 752.08 435.40999999999997" fill="#cc60ff"/><path d="M 752.08 435.40999999999997 A 39.58 39.58 0 0 1  791.6600000000001 395.83 L 752.08 435.40999999999997 A 39.58 39.58 0 0 0 791.6600000000001 395.83" fill="#de96ff"/><path d="M 712.5 435.42 A 39.58 39.58 0 0 1  752.08 475 L 712.5 435.42 A 39.58 39.58 0 0 0 752.08 475" fill="#fefdff"/><path d="M 752.08 435.42 A 39.58 39.58 0 0 1  791.6600000000001 475 L 752.08 435.42 A 39.58 39.58 0 0 0 791.6600000000001 475" fill="#4766e7"/><rect x="791.6666666666667" y="395.83333333333337" width="79.16666666666667" height="79.16666666666667" fill="#ffffff"/><path d="M 791.67 395.83 A 39.58 39.58 0 0 1  831.25 435.40999999999997 L 791.67 395.83 A 39.58 39.58 0 0 0 831.25 435.40999999999997" fill="#afbdf5"/><path d="M 831.25 435.40999999999997 A 39.58 39.58 0 0 1  870.83 395.83 L 831.25 435.40999999999997 A 39.58 39.58 0 0 0 870.83 395.83" fill="#f1d4ff"/><path d="M 791.67 435.42 A 39.58 39.58 0 0 1  831.25 475 L 791.67 435.42 A 39.58 39.58 0 0 0 831.25 475" fill="#cb5bff"/><path d="M 831.25 435.42 A 39.58 39.58 0 0 1  870.83 475 L 831.25 435.42 A 39.58 39.58 0 0 0 870.83 475" fill="#c74fff"/></g></svg>