<?xml version="1.0" standalone="no"?><svg xmlns:xlink="http://www.w3.org/1999/xlink" xmlns="http://www.w3.org/2000/svg" viewBox="0 0 1000 545.4583415978536" preserveAspectRatio="xMaxYMax slice"><g transform="scale(1.3049242621958221)"><rect x="0" y="0" width="766.3333333333334" height="418" fill="#ffffff"/><path d="M 0 69.67 A 69.67 69.67 0 0 1  69.67 0 L 0 69.67 A 69.67 69.67 0 0 0 69.67 0" fill="#cb5cff"/><path d="M 209 69.67 A 69.67 69.67 0 0 1  278.67 0 L 209 69.67 A 69.67 69.67 0 0 0 278.67 0" fill="#6882eb"/><rect x="348.33333333333337" y="0" width="69.66666666666667" height="69.66666666666667" fill="#ffffff"/><path d="M 383.17 34.83 A 34.83 34.83 0 0 1  418 69.66 L 383.17 34.83 A 34.83 34.83 0 0 0 418 69.66" fill="#bec9f7"/><path d="M 69.67 69.67 A 69.67 69.67 0 0 1  139.34 139.34 L 69.67 69.67 A 69.67 69.67 0 0 0 139.34 139.34" fill="#efccff"/><rect x="139.33333333333334" y="69.66666666666667" width="69.66666666666667" height="69.66666666666667" fill="#ffffff"/><path d="M 174.17 69.67 A 34.83 34.83 0 0 1  209 104.5 L 174.17 69.67 A 34.83 34.83 0 0 0 209 104.5" fill="#e2a5ff"/><path d="M 139.33 104.5 A 34.83 34.83 0 0 1  174.16000000000003 139.32999999999998 L 139.33 104.5 A 34.83 34.83 0 0 0 174.16000000000003 139.32999999999998" fill="#fcf4ff"/><path d="M 209 139.34 A 69.67 69.67 0 0 1  278.67 69.67 L 209 139.34 A 69.67 69.67 0 0 0 278.67 69.67" fill="#da8cff"/><rect x="557.3333333333334" y="69.66666666666667" width="69.66666666666667" height="69.66666666666667" fill="#ffffff"/><path d="M 592.17 69.67 A 34.83 34.83 0 0 1  627 104.5 L 592.17 69.67 A 34.83 34.83 0 0 0 627 104.5" fill="#c342ff"/><path d="M 557.33 104.5 A 34.83 34.83 0 0 1  592.1600000000001 139.32999999999998 L 557.33 104.5 A 34.83 34.83 0 0 0 592.1600000000001 139.32999999999998" fill="#d16eff"/><rect x="69.66666666666667" y="139.33333333333334" width="69.66666666666667" height="69.66666666666667" fill="#ffffff"/><path d="M 209 209 A 69.67 69.67 0 0 1  278.67 139.33 L 209 209 A 69.67 69.67 0 0 0 278.67 139.33" fill="#edc7ff"/><rect x="278.6666666666667" y="139.33333333333334" width="69.66666666666667" height="69.66666666666667" fill="#ffffff"/><path d="M 278.67 174.16000000000003 A 34.83 34.83 0 0 1  313.5 139.33 L 278.67 174.16000000000003 A 34.83 34.83 0 0 0 313.5 139.33" fill="#1f44e2"/><path d="M 348.33 209 A 69.67 69.67 0 0 1  418 139.33 L 348.33 209 A 69.67 69.67 0 0 0 418 139.33" fill="#d783ff"/><path d="M 696.67 139.33 A 69.67 69.67 0 0 1  766.3399999999999 209 L 696.67 139.33 A 69.67 69.67 0 0 0 766.3399999999999 209" fill="#d989ff"/><rect x="696.6666666666667" y="209" width="69.66666666666667" height="69.66666666666667" fill="#ffffff"/><path d="M 696.67 209 A 34.83 34.83 0 0 1  731.5 243.82999999999998 L 696.67 209 A 34.83 34.83 0 0 0 731.5 243.82999999999998" fill="#d680ff"/><path d="M 696.67 243.83 A 34.83 34.83 0 0 1  731.5 278.66 L 696.67 243.83 A 34.83 34.83 0 0 0 731.5 278.66" fill="#b5c2f5"/><path d="M 731.5 243.83 A 34.83 34.83 0 0 1  766.33 278.66 L 731.5 243.83 A 34.83 34.83 0 0 0 766.33 278.66" fill="#9cadf2"/><path d="M 69.67 348.34000000000003 A 69.67 69.67 0 0 1  139.34 278.67 L 69.67 348.34000000000003 A 69.67 69.67 0 0 0 139.34 278.67" fill="#ce66ff"/><rect x="139.33333333333334" y="278.6666666666667" width="69.66666666666667" height="69.66666666666667" fill="#ffffff"/><path d="M 139.33 313.5 A 34.83 34.83 0 0 1  174.16000000000003 348.33 L 139.33 313.5 A 34.83 34.83 0 0 0 174.16000000000003 348.33" fill="#a6b5f3"/><path d="M 209 348.34000000000003 A 69.67 69.67 0 0 1  278.67 278.67 L 209 348.34000000000003 A 69.67 69.67 0 0 0 278.67 278.67" fill="#ca58ff"/><rect x="348.33333333333337" y="278.6666666666667" width="69.66666666666667" height="69.66666666666667" fill="#ffffff"/><path d="M 348.33 278.67 A 34.83 34.83 0 0 1  383.15999999999997 313.5 L 348.33 278.67 A 34.83 34.83 0 0 0 383.15999999999997 313.5" fill="#1c42e2"/><path d="M 383.17 313.5 A 34.83 34.83 0 0 1  418 278.67 L 383.17 313.5 A 34.83 34.83 0 0 0 418 278.67" fill="#9cadf2"/><path d="M 348.33 348.33 A 34.83 34.83 0 0 1  383.15999999999997 313.5 L 348.33 348.33 A 34.83 34.83 0 0 0 383.15999999999997 313.5" fill="#dc92ff"/><rect x="418" y="278.6666666666667" width="69.66666666666667" height="69.66666666666667" fill="#ffffff"/><path d="M 452.83 278.67 A 34.83 34.83 0 0 1  487.65999999999997 313.5 L 452.83 278.67 A 34.83 34.83 0 0 0 487.65999999999997 313.5" fill="#ecc2ff"/><path d="M 627 348.34000000000003 A 69.67 69.67 0 0 1  696.67 278.67 L 627 348.34000000000003 A 69.67 69.67 0 0 0 696.67 278.67" fill="#4262e6"/><rect x="69.66666666666667" y="348.33333333333337" width="69.66666666666667" height="69.66666666666667" fill="#ffffff"/><path d="M 69.67 383.17 A 34.83 34.83 0 0 1  104.5 418 L 69.67 383.17 A 34.83 34.83 0 0 0 104.5 418" fill="#c3cdf7"/><path d="M 104.5 418 A 34.83 34.83 0 0 1  139.32999999999998 383.17 L 104.5 418 A 34.83 34.83 0 0 0 139.32999999999998 383.17" fill="#db8fff"/><path d="M 278.67 348.33 A 69.67 69.67 0 0 1  348.34000000000003 418 L 278.67 348.33 A 69.67 69.67 0 0 0 348.34000000000003 418" fill="#4e6ce8"/></g></svg>