<?xml version="1.0" standalone="no"?><svg xmlns:xlink="http://www.w3.org/1999/xlink" xmlns="http://www.w3.org/2000/svg" viewBox="0 0 1000 545.4590152851445" preserveAspectRatio="xMaxYMax slice"><g transform="scale(1.5365042684088577)"><rect x="0" y="0" width="650.8333333333333" height="355" fill="#ffffff"/><rect x="236.66666666666666" y="0" width="59.166666666666664" height="59.166666666666664" fill="#ffffff"/><path d="M 236.67 0 A 29.58 29.58 0 0 1  266.25 29.58 L 236.67 0 A 29.58 29.58 0 0 0 266.25 29.58" fill="#ffd4de"/><path d="M 295.83 0 A 59.17 59.17 0 0 1  355 59.17 L 295.83 0 A 59.17 59.17 0 0 0 355 59.17" fill="#94a6f1"/><path d="M 473.33 59.17 A 59.17 59.17 0 0 1  532.5 0 L 473.33 59.17 A 59.17 59.17 0 0 0 532.5 0" fill="#ffdde5"/><rect x="532.5" y="0" width="59.166666666666664" height="59.166666666666664" fill="#ffffff"/><path d="M 562.08 59.16 A 29.58 29.58 0 0 1  591.6600000000001 29.58 L 562.08 59.16 A 29.58 29.58 0 0 0 591.6600000000001 29.58" fill="#bac6f6"/><rect x="177.5" y="59.166666666666664" width="59.166666666666664" height="59.166666666666664" fill="#ffffff"/><path d="M 177.5 88.75 A 29.58 29.58 0 0 1  207.07999999999998 59.17 L 177.5 88.75 A 29.58 29.58 0 0 0 207.07999999999998 59.17" fill="#ffdae3"/><path d="M 532.5 118.34 A 59.17 59.17 0 0 1  591.67 59.17 L 532.5 118.34 A 59.17 59.17 0 0 0 591.67 59.17" fill="#ff8faa"/><path d="M 0 118.33 A 59.17 59.17 0 0 1  59.17 177.5 L 0 118.33 A 59.17 59.17 0 0 0 59.17 177.5" fill="#2348e2"/><rect x="591.6666666666666" y="118.33333333333333" width="59.166666666666664" height="59.166666666666664" fill="#ffffff"/><path d="M 591.67 147.91 A 29.58 29.58 0 0 1  621.25 118.33 L 591.67 147.91 A 29.58 29.58 0 0 0 621.25 118.33" fill="#3b5ce6"/><path d="M 591.67 147.92 A 29.58 29.58 0 0 1  621.25 177.5 L 591.67 147.92 A 29.58 29.58 0 0 0 621.25 177.5" fill="#b0bdf5"/><rect x="236.66666666666666" y="177.5" width="59.166666666666664" height="59.166666666666664" fill="#ffffff"/><path d="M 236.67 207.07999999999998 A 29.58 29.58 0 0 1  266.25 177.5 L 236.67 207.07999999999998 A 29.58 29.58 0 0 0 266.25 177.5" fill="#ccd4f8"/><path d="M 266.25 207.08 A 29.58 29.58 0 0 1  295.83 236.66000000000003 L 266.25 207.08 A 29.58 29.58 0 0 0 295.83 236.66000000000003" fill="#dce2fa"/><path d="M 414.17 177.5 A 59.17 59.17 0 0 1  473.34000000000003 236.67000000000002 L 414.17 177.5 A 59.17 59.17 0 0 0 473.34000000000003 236.67000000000002" fill="#516ee8"/><rect x="591.6666666666666" y="177.5" width="59.166666666666664" height="59.166666666666664" fill="#ffffff"/><path d="M 621.25 207.08 A 29.58 29.58 0 0 1  650.83 236.66000000000003 L 621.25 207.08 A 29.58 29.58 0 0 0 650.83 236.66000000000003" fill="#4564e7"/><rect x="0" y="236.66666666666666" width="59.166666666666664" height="59.166666666666664" fill="#ffffff"/><path d="M 177.5 236.67 A 59.17 59.17 0 0 1  236.67000000000002 295.84 L 177.5 236.67 A 59.17 59.17 0 0 0 236.67000000000002 295.84" fill="#6a83ec"/><path d="M 532.5 236.67 A 59.17 59.17 0 0 1  591.67 295.84 L 532.5 236.67 A 59.17 59.17 0 0 0 591.67 295.84" fill="#b4c1f5"/><path d="M 0 355 A 59.17 59.17 0 0 1  59.17 295.83 L 0 355 A 59.17 59.17 0 0 0 59.17 295.83" fill="#fffcfd"/><path d="M 59.17 355 A 59.17 59.17 0 0 1  118.34 295.83 L 59.17 355 A 59.17 59.17 0 0 0 118.34 295.83" fill="#d5dcf9"/><path d="M 236.67 295.83 A 59.17 59.17 0 0 1  295.84 355 L 236.67 295.83 A 59.17 59.17 0 0 0 295.84 355" fill="#627ceb"/><rect x="295.8333333333333" y="295.8333333333333" width="59.166666666666664" height="59.166666666666664" fill="#ffffff"/><path d="M 325.42 325.40999999999997 A 29.58 29.58 0 0 1  355 295.83 L 325.42 325.40999999999997 A 29.58 29.58 0 0 0 355 295.83" fill="#7d93ee"/><path d="M 295.83 355 A 29.58 29.58 0 0 1  325.40999999999997 325.42 L 295.83 355 A 29.58 29.58 0 0 0 325.40999999999997 325.42" fill="#92a4f1"/><path d="M 355 295.83 A 59.17 59.17 0 0 1  414.17 355 L 355 295.83 A 59.17 59.17 0 0 0 414.17 355" fill="#ff4471"/><path d="M 591.67 355 A 59.17 59.17 0 0 1  650.8399999999999 295.83 L 591.67 355 A 59.17 59.17 0 0 0 650.8399999999999 295.83" fill="#ff7999"/></g></svg>