<?xml version="1.0" standalone="no"?>
<!DOCTYPE svg PUBLIC "-//W3C//DTD SVG 20010904//EN"
 "http://www.w3.org/TR/2001/REC-SVG-20010904/DTD/svg10.dtd">
<svg version="1.0" xmlns="http://www.w3.org/2000/svg"
 width="50" height="50" viewBox="0 0 500.000000 500.000000"
 preserveAspectRatio="xMidYMid meet">

<g transform="translate(0.000000,500.000000) scale(0.100000,-0.100000)"
fill="#fff" stroke="none">
<path d="M0 2500 l0 -2500 2500 0 2500 0 0 2500 0 2500 -2500 0 -2500 0 0
-2500z m2620 831 c0 -18 -217 -572 -229 -584 -24 -24 -8 24 101 305 96 249
128 319 128 279z m-260 -110 c0 -5 -46 -46 -102 -91 -57 -45 -103 -86 -103
-90 0 -4 46 -45 103 -90 56 -45 102 -86 102 -92 0 -5 -4 -8 -9 -6 -21 7 -231
179 -231 188 0 10 219 189 233 190 4 0 7 -4 7 -9z m410 -82 c63 -50 115 -94
115 -99 0 -9 -226 -190 -237 -190 -23 0 3 27 97 100 58 46 105 86 105 90 0 4
-47 44 -105 90 -94 73 -120 100 -97 100 4 0 59 -41 122 -91z m-1171 -632 c18
-34 43 -77 54 -95 l19 -33 55 95 54 96 50 0 50 0 -15 -28 c-8 -16 -44 -78 -80
-138 l-66 -109 0 -87 0 -88 -45 0 -45 0 0 81 0 81 -66 112 c-37 61 -76 126
-86 144 l-20 32 54 0 53 0 34 -63z m1525 37 c31 -30 12 -64 -36 -64 -22 0 -29
6 -34 27 -11 43 38 69 70 37z m-1001 -108 c64 -27 72 -45 76 -182 4 -147 12
-139 -136 -139 -115 0 -150 15 -167 73 -21 75 36 122 148 122 71 0 79 7 45 41
-18 18 -30 21 -78 17 -31 -3 -64 -9 -75 -13 -16 -7 -18 -5 -11 26 9 42 20 57
48 62 48 9 119 6 150 -7z m330 3 c39 -11 47 -31 24 -62 -10 -15 -17 -16 -44
-7 -43 16 -97 9 -101 -12 -2 -12 13 -21 62 -38 84 -28 121 -67 112 -119 -10
-68 -81 -100 -191 -86 -69 8 -89 22 -79 59 6 24 10 27 33 22 72 -16 117 -17
135 -3 26 19 14 34 -43 51 -105 31 -126 54 -119 127 6 66 103 98 211 68z m293
-8 c29 -18 33 -18 48 -3 12 13 35 17 87 17 67 0 72 -2 100 -33 29 -32 29 -33
29 -162 l0 -130 -45 0 -45 0 0 113 c0 122 -6 137 -50 137 -44 0 -50 -15 -50
-137 l0 -113 -45 0 -45 0 0 103 c0 122 -11 147 -66 147 l-34 0 0 -125 0 -125
-45 0 -45 0 0 159 0 160 33 4 c85 10 143 7 173 -12z m659 5 c54 -23 65 -57 65
-196 l0 -120 -45 0 -45 0 0 109 c0 129 -8 144 -74 139 l-41 -3 -3 -122 -3
-123 -45 0 -45 0 3 158 3 157 35 6 c65 12 160 9 195 -5z m-265 -156 l0 -160
-45 0 -45 0 0 160 0 160 45 0 45 0 0 -160z m-1290 -422 l24 -83 25 83 c22 74
27 82 49 82 16 0 22 -4 19 -13 -3 -7 -17 -55 -33 -105 -27 -91 -28 -92 -58
-92 -31 0 -33 2 -58 83 -43 136 -42 127 -16 127 22 0 27 -9 48 -82z m538 -20
l-3 -102 -30 -8 c-37 -10 -92 7 -105 32 -29 54 4 120 60 120 27 0 30 3 30 30
0 25 4 30 25 30 l26 0 -3 -102z m-285 24 c9 -10 18 -29 19 -43 3 -22 -1 -24
-52 -29 -39 -4 -51 -8 -40 -14 8 -6 29 -9 46 -8 47 4 53 -25 8 -37 -43 -12
-76 -1 -98 31 -22 30 -20 60 5 92 25 32 86 37 112 8z m127 -2 c0 -15 -7 -20
-25 -20 -24 0 -25 -3 -25 -55 0 -48 -2 -55 -20 -55 -18 0 -20 7 -20 68 0 38 3
72 7 75 3 4 24 7 45 7 31 0 38 -3 38 -20z m303 2 c9 -10 18 -29 19 -43 3 -22
-1 -24 -52 -29 -39 -4 -51 -8 -40 -14 8 -6 29 -9 46 -8 47 4 53 -25 8 -37 -43
-12 -76 -1 -98 31 -22 30 -20 60 5 92 25 32 86 37 112 8z m127 -2 c0 -15 -7
-20 -25 -20 -24 0 -25 -3 -25 -55 0 -48 -2 -55 -20 -55 -18 0 -20 7 -20 68 0
38 3 72 7 75 3 4 24 7 45 7 31 0 38 -3 38 -20z m132 3 c13 -12 18 -31 18 -75
0 -56 -1 -58 -27 -60 -81 -5 -113 8 -113 48 0 26 26 44 64 44 27 0 35 14 13
23 -7 3 -25 3 -40 0 -19 -4 -27 -1 -27 9 0 23 10 28 53 28 24 0 48 -7 59 -17z
m238 7 c9 -5 16 -34 18 -74 4 -66 4 -66 -22 -66 -25 0 -26 2 -26 55 0 48 -2
55 -20 55 -18 0 -20 -7 -20 -55 0 -52 -1 -55 -25 -55 -24 0 -25 3 -25 55 0 48
-2 55 -20 55 -18 0 -20 -7 -20 -55 0 -52 -1 -55 -25 -55 -24 0 -25 2 -25 68 0
38 3 71 6 75 10 9 189 6 204 -3z m164 -12 c9 -12 16 -33 16 -45 0 -21 -5 -23
-52 -23 -47 0 -51 -2 -37 -15 12 -12 22 -14 42 -6 28 11 43 1 34 -23 -13 -33
-108 -22 -127 14 -16 30 -11 75 10 98 29 31 93 31 114 0z"/>
<path d="M1997 2243 c-14 -13 -6 -43 13 -53 12 -6 38 -10 58 -8 34 3 37 6 40
36 l3 32 -54 0 c-29 0 -57 -3 -60 -7z"/>
<path d="M2284 1814 c-7 -28 1 -41 31 -46 17 -2 21 3 23 35 3 34 1 37 -22 37
-19 0 -27 -7 -32 -26z"/>
<path d="M2033 1843 c-24 -9 -13 -23 17 -23 32 0 40 14 14 24 -9 3 -16 6 -17
5 -1 0 -8 -3 -14 -6z"/>
<path d="M2463 1843 c-24 -9 -13 -23 17 -23 32 0 40 14 14 24 -9 3 -16 6 -17
5 -1 0 -8 -3 -14 -6z"/>
<path d="M2717 1784 c-10 -11 3 -24 24 -24 10 0 19 7 19 15 0 15 -31 21 -43 9z"/>
<path d="M3117 1843 c-15 -14 -6 -23 24 -23 27 0 30 2 19 15 -13 16 -32 19
-43 8z"/>
</g>
</svg>
